<?xml version="1.0" encoding="UTF-8"?>
<svg version="1.1" xmlns="http://www.w3.org/2000/svg" width="512" height="512">
<path d="M0 0 C1.35279808 -0.01058945 1.35279808 -0.01058945 2.73292542 -0.02139282 C40.61043231 -0.25053783 40.61043231 -0.25053783 57.3046875 3.203125 C58.28244141 3.40180176 59.26019531 3.60047852 60.26757812 3.80517578 C96.82293148 11.45429752 131.52042259 25.40868312 161.3046875 48.203125 C161.87735352 48.63447754 162.45001953 49.06583008 163.04003906 49.51025391 C171.95280458 56.23534062 180.25956718 63.46575554 188.3046875 71.203125 C188.79598145 71.67250488 189.28727539 72.14188477 189.79345703 72.62548828 C196.52118975 79.08185027 202.55717376 85.86801131 208.3046875 93.203125 C209.08328125 94.16476563 209.861875 95.12640625 210.6640625 96.1171875 C252.68013457 148.97180046 268.73067478 216.77782198 261.3046875 283.203125 C254.59538307 336.37895505 230.35221815 385.65130368 193.3046875 424.203125 C192.73733887 424.79770508 192.16999023 425.39228516 191.58544922 426.00488281 C183.05270434 434.90243179 174.23392519 442.90056594 164.3046875 450.203125 C163.44858887 450.84241943 163.44858887 450.84241943 162.57519531 451.49462891 C153.83416689 458.00972708 144.7869366 463.82863542 135.3046875 469.203125 C134.61342773 469.59999512 133.92216797 469.99686523 133.20996094 470.40576172 C78.89701771 501.3138723 10.64514241 509.49194783 -49.73046875 493.66796875 C-88.15476924 483.08727501 -122.78272933 465.66734068 -152.6953125 439.203125 C-153.55382812 438.45546875 -154.41234375 437.7078125 -155.296875 436.9375 C-165.66064366 427.7910629 -175.22494694 418.14224032 -183.6953125 407.203125 C-184.14342285 406.63674316 -184.5915332 406.07036133 -185.05322266 405.48681641 C-197.28943192 389.9958997 -207.45797503 373.14126457 -215.6953125 355.203125 C-216.0248291 354.48898437 -216.3543457 353.77484375 -216.69384766 353.0390625 C-224.33524677 336.25795072 -229.67756049 318.85241541 -233.5078125 300.828125 C-233.70270264 299.91522705 -233.89759277 299.0023291 -234.09838867 298.06176758 C-237.27627774 282.24515176 -238.07220184 266.67012199 -238.0078125 250.578125 C-238.00565735 249.60757172 -238.0035022 248.63701843 -238.00128174 247.63705444 C-237.95025821 233.3122728 -237.61562067 219.27630349 -234.6953125 205.203125 C-234.38932129 203.71256592 -234.38932129 203.71256592 -234.07714844 202.19189453 C-229.59963726 181.01984932 -223.15484453 160.67911038 -213.6953125 141.203125 C-213.29328613 140.37312988 -212.89125977 139.54313477 -212.47705078 138.68798828 C-200.24180702 113.7359455 -183.82749741 92.24231719 -164.6953125 72.203125 C-164.06238281 71.52894531 -163.42945313 70.85476562 -162.77734375 70.16015625 C-157.82742801 65.0221202 -152.26540124 60.64500469 -146.6953125 56.203125 C-145.62062987 55.32608895 -144.54642315 54.44846946 -143.47265625 53.5703125 C-103.8460059 21.42920912 -51.41248746 0.26839875 0 0 Z " fill="#F25E0E" transform="translate(242.6953125,4.796875)"/>
<path d="M0 0 C1.35279808 -0.01058945 1.35279808 -0.01058945 2.73292542 -0.02139282 C40.61043231 -0.25053783 40.61043231 -0.25053783 57.3046875 3.203125 C58.28244141 3.40180176 59.26019531 3.60047852 60.26757812 3.80517578 C96.82293148 11.45429752 131.52042259 25.40868312 161.3046875 48.203125 C161.87735352 48.63447754 162.45001953 49.06583008 163.04003906 49.51025391 C171.95280458 56.23534062 180.25956718 63.46575554 188.3046875 71.203125 C188.79598145 71.67250488 189.28727539 72.14188477 189.79345703 72.62548828 C196.52118975 79.08185027 202.55717376 85.86801131 208.3046875 93.203125 C209.08328125 94.16476563 209.861875 95.12640625 210.6640625 96.1171875 C252.68013457 148.97180046 268.73067478 216.77782198 261.3046875 283.203125 C254.59538307 336.37895505 230.35221815 385.65130368 193.3046875 424.203125 C192.73733887 424.79770508 192.16999023 425.39228516 191.58544922 426.00488281 C183.05270434 434.90243179 174.23392519 442.90056594 164.3046875 450.203125 C163.44858887 450.84241943 163.44858887 450.84241943 162.57519531 451.49462891 C153.83416689 458.00972708 144.7869366 463.82863542 135.3046875 469.203125 C134.61342773 469.59999512 133.92216797 469.99686523 133.20996094 470.40576172 C78.89701771 501.3138723 10.64514241 509.49194783 -49.73046875 493.66796875 C-88.15476924 483.08727501 -122.78272933 465.66734068 -152.6953125 439.203125 C-153.55382812 438.45546875 -154.41234375 437.7078125 -155.296875 436.9375 C-165.66064366 427.7910629 -175.22494694 418.14224032 -183.6953125 407.203125 C-184.14342285 406.63674316 -184.5915332 406.07036133 -185.05322266 405.48681641 C-197.28943192 389.9958997 -207.45797503 373.14126457 -215.6953125 355.203125 C-216.0248291 354.48898437 -216.3543457 353.77484375 -216.69384766 353.0390625 C-224.33524677 336.25795072 -229.67756049 318.85241541 -233.5078125 300.828125 C-233.70270264 299.91522705 -233.89759277 299.0023291 -234.09838867 298.06176758 C-237.27627774 282.24515176 -238.07220184 266.67012199 -238.0078125 250.578125 C-238.00565735 249.60757172 -238.0035022 248.63701843 -238.00128174 247.63705444 C-237.95025821 233.3122728 -237.61562067 219.27630349 -234.6953125 205.203125 C-234.38932129 203.71256592 -234.38932129 203.71256592 -234.07714844 202.19189453 C-229.59963726 181.01984932 -223.15484453 160.67911038 -213.6953125 141.203125 C-213.29328613 140.37312988 -212.89125977 139.54313477 -212.47705078 138.68798828 C-200.24180702 113.7359455 -183.82749741 92.24231719 -164.6953125 72.203125 C-164.06238281 71.52894531 -163.42945313 70.85476562 -162.77734375 70.16015625 C-157.82742801 65.0221202 -152.26540124 60.64500469 -146.6953125 56.203125 C-145.62062987 55.32608895 -144.54642315 54.44846946 -143.47265625 53.5703125 C-103.8460059 21.42920912 -51.41248746 0.26839875 0 0 Z M-68.2265625 72.19921875 C-74.99868049 80.78223538 -80.97923079 89.8903787 -86.6953125 99.203125 C-87.34266357 100.23163574 -87.99001465 101.26014648 -88.65698242 102.31982422 C-98.68983629 118.59129506 -106.71285435 136.04127726 -115.16088867 153.16540527 C-124.52362074 172.13846077 -133.92074706 190.97848366 -144.6953125 209.203125 C-145.08059113 209.8573645 -145.46586975 210.511604 -145.86282349 211.18566895 C-147.96643951 214.74378933 -150.12094206 218.26599782 -152.3203125 221.765625 C-152.94583008 222.76174805 -153.57134766 223.75787109 -154.21582031 224.78417969 C-159.24473271 232.68896117 -164.59700903 240.0960796 -170.6953125 247.203125 C-171.12730957 247.7172998 -171.55930664 248.23147461 -172.00439453 248.76123047 C-179.57368455 257.72508447 -188.24740902 265.37466245 -198.10546875 271.765625 C-198.63011719 272.24 -199.15476563 272.714375 -199.6953125 273.203125 C-199.6953125 304.91602533 -175.07042669 342.03867867 -153.6953125 364.203125 C-152.95667969 365.00492187 -152.21804687 365.80671875 -151.45703125 366.6328125 C-138.3831003 380.44767921 -119.36083341 391.61883825 -100.00390625 392.5390625 C-81.36172446 392.88840168 -64.38409255 388.6623117 -48.6953125 378.203125 C-44.06322228 378.68311981 -41.79806673 381.95744719 -38.8828125 385.265625 C-38.3472876 385.85980225 -37.8117627 386.45397949 -37.26000977 387.06616211 C-33.98068525 390.71509993 -30.74403563 394.40227893 -27.53515625 398.11328125 C-24.26673873 401.82581495 -20.89548591 405.44529025 -17.5390625 409.078125 C-15.49243984 411.30476135 -13.50995204 413.57729508 -11.5390625 415.87109375 C7.59000708 437.78418188 28.74409345 460.29473586 59.2734375 462.48828125 C76.00824192 463.26071626 91.89262019 458.02684677 104.4921875 446.765625 C106.09783605 445.24635628 107.70208044 443.72560171 109.3046875 442.203125 C110.69505126 441.00922569 112.09053348 439.82124896 113.4921875 438.640625 C117.49966824 435.13707897 120.89619096 431.28202976 124.3046875 427.203125 C125.02011719 426.37554687 125.73554688 425.54796875 126.47265625 424.6953125 C132.26847612 417.90673392 137.5868641 410.83332169 142.84545898 403.62255859 C146.94644511 398.01045003 151.14314226 392.48714129 155.4296875 387.015625 C159.86649834 381.35178179 164.25102585 375.65640584 168.5546875 369.890625 C173.3318975 363.49205887 178.15258825 357.13115202 183.04833984 350.82275391 C183.90424587 349.71935698 184.75868005 348.61481714 185.61181641 347.50927734 C192.09346573 339.11555331 198.81925649 330.982911 205.77099609 322.97509766 C207.33753358 321.16517581 208.89478787 319.34767046 210.44921875 317.52734375 C210.96556885 316.9243042 211.48191895 316.32126465 212.01391602 315.69995117 C213.03256789 314.50374945 214.04491356 313.3021457 215.05053711 312.0949707 C217.2545989 309.46996228 219.35942564 307.15638951 221.9765625 304.921875 C224.45241368 302.76173639 225.95361199 301.20344441 227.3046875 298.203125 C227.21971715 293.22629039 225.7941196 288.80140491 224.25146484 284.11914062 C223.15864369 280.75331909 222.16347392 277.36461161 221.16796875 273.96875 C214.17317078 250.35915113 206.11862522 226.87933331 194.3046875 205.203125 C193.94665039 204.52862305 193.58861328 203.85412109 193.21972656 203.15917969 C188.61861749 194.49568636 183.81006964 186.60362755 177.3046875 179.203125 C176.61890625 178.37425781 175.933125 177.54539063 175.2265625 176.69140625 C165.33936287 165.07928151 151.92739462 154.81621923 136.3046875 153.203125 C121.76949798 152.1724946 109.65296835 153.81735501 97.23046875 162.03125 C95.3046875 163.203125 95.3046875 163.203125 93.3046875 163.203125 C92.85665771 162.2965918 92.40862793 161.39005859 91.94702148 160.45605469 C90.2533797 157.03205058 88.55410198 153.61086779 86.85327148 150.19042969 C86.12358654 148.72111902 85.39534973 147.25108812 84.66870117 145.78027344 C80.66846812 137.68594402 76.56933378 129.73397351 71.94091797 121.97460938 C70.31569086 119.22176274 68.77417854 116.43698429 67.25390625 113.625 C59.24668257 98.8350933 50.79722062 84.37830072 40.3046875 71.203125 C39.60448486 70.32358154 39.60448486 70.32358154 38.89013672 69.42626953 C30.77990662 59.34305671 22.67431238 51.53459692 11.3046875 45.203125 C10.3353125 44.625625 9.3659375 44.048125 8.3671875 43.453125 C-21.53427446 31.24844665 -49.54176715 50.08311067 -68.2265625 72.19921875 Z " fill="#FEFEFE" transform="translate(242.6953125,4.796875)"/>
<path d="M0 0 C4.64435713 3.25708163 8.72344285 6.86718223 12.70703125 10.8984375 C13.34769531 11.5171875 13.98835937 12.1359375 14.6484375 12.7734375 C26.63268152 25.18300959 35.01617553 41.74132613 43.44580078 56.66845703 C44.65794006 58.8116394 45.88194929 60.9475759 47.109375 63.08203125 C51.22124506 70.26585832 55.09678382 77.52624011 58.74975586 84.95410156 C61.05575764 89.6364206 63.4760016 94.24426752 65.95703125 98.8359375 C70.50373431 107.33118002 70.50373431 107.33118002 72.33203125 111.0859375 C72.65429688 111.73949219 72.9765625 112.39304687 73.30859375 113.06640625 C73.86430079 115.62156903 72.9821077 116.65474299 71.70703125 118.8984375 C70.87004857 120.02333026 69.99537839 121.1209247 69.08984375 122.19140625 C68.57220459 122.81160645 68.05456543 123.43180664 67.52124023 124.07080078 C66.96380127 124.7357959 66.4063623 125.40079102 65.83203125 126.0859375 C48.04166621 147.71459278 33.08472462 171.82221247 18.01953125 195.3984375 C17.36525146 196.42066406 16.71097168 197.44289063 16.03686523 198.49609375 C13.28079662 202.81420718 10.54608358 207.14025917 7.89453125 211.5234375 C7.48420654 212.19181641 7.07388184 212.86019531 6.65112305 213.54882812 C5.62214081 215.23072013 4.61084552 216.92340093 3.6015625 218.6171875 C1.70703125 220.8984375 1.70703125 220.8984375 -0.41333008 221.77441406 C-4.62286053 221.95571474 -7.65390394 220.10465541 -11.26171875 218.1640625 C-12.01964722 217.77023376 -12.77757568 217.37640503 -13.55847168 216.97064209 C-15.97708869 215.70966171 -18.38481128 214.42925972 -20.79296875 213.1484375 C-22.41340481 212.30082479 -24.03449237 211.45445637 -25.65625 210.609375 C-37.0819628 204.63300667 -37.0819628 204.63300667 -41.05444336 202.22338867 C-43.05803958 201.03748871 -44.88540744 200.18961333 -47.078125 199.43359375 C-47.76712891 199.19294189 -48.45613281 198.95229004 -49.16601562 198.7043457 C-49.88853516 198.459021 -50.61105469 198.21369629 -51.35546875 197.9609375 C-52.11279297 197.70078857 -52.87011719 197.44063965 -53.65039062 197.17260742 C-55.17002341 196.65140173 -56.6903567 196.13223342 -58.21142578 195.61523438 C-59.97437081 195.00814939 -61.72679651 194.37064814 -63.4765625 193.7265625 C-76.88608255 188.89095194 -90.54302783 187.40103889 -104.70507812 187.56225586 C-106.924847 187.58601111 -109.14341549 187.58275829 -111.36328125 187.57617188 C-124.35757974 187.59993565 -136.9352424 188.8871917 -149.48046875 192.4609375 C-150.28548828 192.68201172 -151.09050781 192.90308594 -151.91992188 193.13085938 C-153.39212329 193.53525661 -154.86326418 193.9435581 -156.33276367 194.35766602 C-158.31224998 194.90375671 -160.29898315 195.4082227 -162.29296875 195.8984375 C-160.39088858 192.53635084 -158.40342349 189.80241758 -155.73046875 187.0234375 C-150.14100176 180.83108468 -145.72285156 173.942194 -141.29296875 166.8984375 C-140.92010742 166.30724121 -140.54724609 165.71604492 -140.16308594 165.10693359 C-130.28365311 149.25849349 -121.93260757 132.44086696 -113.29296875 115.8984375 C-112.93813416 115.21906128 -112.58329956 114.53968506 -112.2177124 113.83972168 C-106.15429732 102.22316664 -100.09552158 90.60429191 -94.31054688 78.84594727 C-63.11759625 15.49316565 -63.11759625 15.49316565 -36.29296875 -0.1015625 C-35.54917969 -0.5346875 -34.80539063 -0.9678125 -34.0390625 -1.4140625 C-23.39684642 -6.60011703 -10.11016623 -5.89183422 0 0 Z " fill="#FEFEFD" transform="translate(248.29296875,67.1015625)"/>
<path d="M0 0 C3.3624586 0.49503063 6.40264483 1.42959134 9.5703125 2.63671875 C39.65548329 13.79739095 70.13887086 18.22578158 102.125 18.3125 C103.26639435 18.31814972 103.26639435 18.31814972 104.43084717 18.32391357 C125.67845365 18.3774166 146.85745235 15.76607751 167.20117188 9.5378418 C172.69171573 7.89723858 172.69171573 7.89723858 176 9 C174.69289063 10.38058594 174.69289063 10.38058594 173.359375 11.7890625 C157.10634203 29.02803313 142.49054602 47.25126921 128.33032227 66.23730469 C123.77418654 72.33445278 119.08116655 78.31688448 114.35449219 84.28222656 C112.99044076 86.01212307 111.63820147 87.75064237 110.2890625 89.4921875 C78.05785193 131.03720619 78.05785193 131.03720619 58 134 C40.99750906 135.63253822 30.05135868 131.36601726 16.82669067 120.56060791 C11.61107003 116.10471456 6.82071527 111.18199929 2.01367188 106.29492188 C0.11332828 104.36313516 -1.7977407 102.44248804 -3.7109375 100.5234375 C-9.15465077 95.04508355 -14.5521353 89.56457139 -19.56298828 83.68212891 C-21.95840791 80.87811238 -24.48600431 78.19737733 -27 75.5 C-32.87109803 69.16770599 -38.68008435 62.80949203 -44 56 C-42.41909405 52.01499447 -39.61129068 49.50664837 -36.5625 46.625 C-30.53384775 40.7611297 -25.38664404 34.44539783 -20.32470703 27.74365234 C-19.02317715 26.03050704 -17.70142413 24.33537669 -16.37109375 22.64453125 C-11.44649435 16.36559715 -6.84889861 9.95685823 -2.49609375 3.265625 C-1 1 -1 1 0 0 Z " fill="#FEFEFE" transform="translate(255,314)"/>
<path d="M0 0 C3.70237091 1.23412364 4.11508239 2.70431815 5.80175781 6.06445312 C6.3330127 7.14629883 6.3330127 7.14629883 6.875 8.25 C25.44788164 44.5254023 51.76703761 80.74908804 91.41796875 95.25 C97.85529314 97.30269898 104.34209852 98.85778665 111 100 C111 100.66 111 101.32 111 102 C88.95696795 108.07054156 66.25085532 112.10825201 43.34375 112.203125 C42.24317261 112.20882507 41.14259521 112.21452515 40.00866699 112.22039795 C37.68238265 112.22980098 35.35608528 112.23636312 33.02978516 112.24023438 C29.56517391 112.24981969 26.10118819 112.28083842 22.63671875 112.3125 C0.67986702 112.41699081 -21.07686475 111.04789386 -42 104 C-42.76763672 103.74250977 -43.53527344 103.48501953 -44.32617188 103.21972656 C-50.946122 100.97590616 -57.52674044 98.64189123 -64 96 C-62.25130115 90.85799267 -59.35806472 86.45480605 -56.5 81.875 C-55.93466553 80.96556641 -55.36933105 80.05613281 -54.78686523 79.11914062 C-48.18101653 68.57527492 -41.24907573 58.24931728 -34.3054657 47.92652893 C-31.87201503 44.30683915 -29.45714317 40.67548117 -27.0546875 37.03515625 C-18.58191083 24.20424627 -9.69771695 11.94378218 0 0 Z " fill="#FEFEFD" transform="translate(330,202)"/>
<path d="M0 0 C0.70453308 -0.0080365 1.40906616 -0.016073 2.13494873 -0.02435303 C16.70801492 -0.15080138 30.24286839 2.0898945 44 7.0625 C44.978479 7.40990234 45.95695801 7.75730469 46.96508789 8.11523438 C54.82632269 10.97832046 62.22499684 14.41899386 69.59082031 18.36621094 C72.28282234 19.78863452 75.01217902 21.13137454 77.74243164 22.47851562 C84.75774891 25.94025491 91.67125325 29.55553148 98.5 33.375 C96.84734304 38.59282261 93.6386114 42.64260396 90.4375 47 C89.8511377 47.80324707 89.26477539 48.60649414 88.66064453 49.43408203 C70.34802587 74.3611242 70.34802587 74.3611242 58.5 83.375 C57.47561545 82.37863813 56.45577287 81.37760713 55.4375 80.375 C54.86902344 79.818125 54.30054688 79.26125 53.71484375 78.6875 C51.83039775 76.71996555 50.04866321 74.71379305 48.26953125 72.65234375 C38.69575979 61.64868196 28.17686007 51.13685748 16.5 42.375 C15.47261719 41.5809375 14.44523437 40.786875 13.38671875 39.96875 C-7.38747999 24.24938271 -30.12606351 15.78631619 -55.87890625 12.61572266 C-56.98621094 12.47827637 -58.09351562 12.34083008 -59.234375 12.19921875 C-60.22663086 12.08666748 -61.21888672 11.97411621 -62.24121094 11.8581543 C-62.98661133 11.69871338 -63.73201172 11.53927246 -64.5 11.375 C-64.83 10.715 -65.16 10.055 -65.5 9.375 C-43.64736639 3.34093276 -22.64600908 0.14348249 0 0 Z " fill="#FEFDFC" transform="translate(139.5,271.625)"/>
<path d="M0 0 C33.26454804 20.26326342 49.16858058 70.35539954 58.84375 105.8515625 C58.84375 106.8415625 58.84375 107.8315625 58.84375 108.8515625 C20.11321962 98.69273486 -6.86671309 72.4515596 -27.15625 38.8515625 C-30.21749901 33.60767405 -33.1310585 28.28701917 -36.01171875 22.94238281 C-37.11241802 20.9316344 -38.25057497 18.94830289 -39.40625 16.96875 C-39.74624023 16.37481445 -40.08623047 15.78087891 -40.43652344 15.16894531 C-41.33998584 13.5922078 -42.25546635 12.02237344 -43.171875 10.453125 C-44.15625 7.8515625 -44.15625 7.8515625 -43.625 5.6953125 C-41.79377381 3.3965392 -39.94892077 2.19822952 -37.40625 0.7265625 C-36.56578125 0.22898438 -35.7253125 -0.26859375 -34.859375 -0.78125 C-23.80208779 -6.37380856 -10.82768022 -5.76691664 0 0 Z " fill="#FEFDFD" transform="translate(389.15625,181.1484375)"/>
<path d="M0 0 C7.51109455 0.45967863 14.45520475 1.62773502 21.6875 3.6875 C22.64156738 3.9558667 23.59563477 4.2242334 24.57861328 4.50073242 C55.69376827 13.43217605 78.68861531 30.49963317 101.41625977 53.23095703 C102.9550763 54.76755091 104.50178713 56.2959106 106.04882812 57.82421875 C107.04215397 58.81461567 108.03501025 59.80548381 109.02734375 60.796875 C109.91156006 61.67698242 110.79577637 62.55708984 111.70678711 63.46386719 C113.87119132 65.85754662 115.45606999 68.17648768 117 71 C101.78680894 81.11449215 85.6892527 84.76874176 67.5390625 81.34765625 C64.8577696 80.43161337 62.49086 79.34771169 60 78 C59.04480469 77.525625 58.08960938 77.05125 57.10546875 76.5625 C48.96473782 72.21520338 42.45248133 66.4881304 36 60 C35.13375 59.13375 34.2675 58.2675 33.375 57.375 C23.40129333 46.902608 16.33618411 34.98298948 9.625 22.25 C9.12500488 21.30415039 8.62500977 20.35830078 8.10986328 19.38378906 C4.86344961 13.08392653 2.26171326 6.71502177 0 0 Z " fill="#FEFDFD" transform="translate(66,296)"/>
</svg>
