<?xml version="1.0" encoding="UTF-8"?>
<svg version="1.1" xmlns="http://www.w3.org/2000/svg" width="420" height="442">
<path d="M0 0 C138.6 0 277.2 0 420 0 C420 145.86 420 291.72 420 442 C281.4 442 142.8 442 0 442 C0 296.14 0 150.28 0 0 Z " fill="#FDFCFD" transform="translate(0,0)"/>
<path d="M0 0 C137.61 0 275.22 0 417 0 C417 30.69 417 61.38 417 93 C279.39 93 141.78 93 0 93 C0 62.31 0 31.62 0 0 Z " fill="#5DCCF6" transform="translate(1,0)"/>
<path d="M0 0 C16.17 0 32.34 0 49 0 C49 42.9 49 85.8 49 130 C32.83 130 16.66 130 0 130 C0 87.1 0 44.2 0 0 Z " fill="#62BFF9" transform="translate(1,245)"/>
<path d="M0 0 C27.72 0 55.44 0 84 0 C84 24.75 84 49.5 84 75 C56.28 75 28.56 75 0 75 C0 50.25 0 25.5 0 0 Z " fill="#62BFF9" transform="translate(168,170)"/>
<path d="M0 0 C27.72 0 55.44 0 84 0 C84 17.82 84 35.64 84 54 C56.28 54 28.56 54 0 54 C0 36.18 0 18.36 0 0 Z " fill="#64C0F9" transform="translate(269,357)"/>
<path d="M0 0 C16.17 0 32.34 0 49 0 C49 30.36 49 60.72 49 92 C32.83 92 16.66 92 0 92 C0 61.64 0 31.28 0 0 Z " fill="#FEFEFE" transform="translate(0,146)"/>
<path d="M0 0 C27.72 0 55.44 0 84 0 C84 17.49 84 34.98 84 53 C56.28 53 28.56 53 0 53 C0 35.51 0 18.02 0 0 Z " fill="#61BFF9" transform="translate(168,296)"/>
<path d="M0 0 C15.84 0 31.68 0 48 0 C48 24.75 48 49.5 48 75 C32.16 75 16.32 75 0 75 C0 50.25 0 25.5 0 0 Z " fill="#65C0F9" transform="translate(370,170)"/>
<path d="M0 0 C27.72 0 55.44 0 84 0 C84 13.86 84 27.72 84 42 C56.28 42 28.56 42 0 42 C0 28.14 0 14.28 0 0 Z " fill="#6BC197" transform="translate(168,352)"/>
<path d="M0 0 C27.72 0 55.44 0 84 0 C84 13.53 84 27.06 84 41 C56.28 41 28.56 41 0 41 C0 27.47 0 13.94 0 0 Z " fill="#E05837" transform="translate(67,204)"/>
<path d="M0 0 C27.72 0 55.44 0 84 0 C84 13.53 84 27.06 84 41 C56.28 41 28.56 41 0 41 C0 27.47 0 13.94 0 0 Z " fill="#63C0F9" transform="translate(269,170)"/>
<path d="M0 0 C27.72 0 55.44 0 84 0 C84 12.87 84 25.74 84 39 C56.28 39 28.56 39 0 39 C0 26.13 0 13.26 0 0 Z " fill="#FAFAFA" transform="translate(168,397)"/>
<path d="M0 0 C27.72 0 55.44 0 84 0 C84 12.87 84 25.74 84 39 C56.28 39 28.56 39 0 39 C0 26.13 0 13.26 0 0 Z " fill="#6CC198" transform="translate(67,304)"/>
<path d="M0 0 C27.39 0 54.78 0 83 0 C83 11.55 83 23.1 83 35 C55.61 35 28.22 35 0 35 C0 23.45 0 11.9 0 0 Z " fill="#8E7EF7" transform="translate(270,296)"/>
<path d="M0 0 C27.72 0 55.44 0 84 0 C84 10.56 84 21.12 84 32 C56.28 32 28.56 32 0 32 C0 21.44 0 10.88 0 0 Z " fill="#66C1F9" transform="translate(67,379)"/>
<path d="M0 0 C27.72 0 55.44 0 84 0 C84 10.23 84 20.46 84 31 C56.28 31 28.56 31 0 31 C0 20.77 0 10.54 0 0 Z " fill="#E05938" transform="translate(269,214)"/>
<path d="M0 0 C27.72 0 55.44 0 84 0 C84 10.23 84 20.46 84 31 C56.28 31 28.56 31 0 31 C0 20.77 0 10.54 0 0 Z " fill="#E05A39" transform="translate(67,170)"/>
<path d="M0 0 C27.72 0 55.44 0 84 0 C84 9.9 84 19.8 84 30 C56.28 30 28.56 30 0 30 C0 20.1 0 10.2 0 0 Z " fill="#E05635" transform="translate(67,346)"/>
<path d="M0 0 C27.72 0 55.44 0 84 0 C84 9.9 84 19.8 84 30 C56.28 30 28.56 30 0 30 C0 20.1 0 10.2 0 0 Z " fill="#63C0F9" transform="translate(67,271)"/>
<path d="M0 0 C6.67525404 -0.02290404 13.3503728 -0.04283264 20.02563477 -0.05493164 C22.29842591 -0.05997325 24.5712138 -0.06680637 26.84399414 -0.07543945 C30.10303551 -0.08751261 33.36203417 -0.09322987 36.62109375 -0.09765625 C37.64400009 -0.10281754 38.66690643 -0.10797882 39.72080994 -0.11329651 C40.66170975 -0.11337204 41.60260956 -0.11344757 42.57202148 -0.11352539 C43.40475082 -0.115746 44.23748016 -0.11796661 45.09544373 -0.12025452 C47 0 47 0 48 1 C48.14115161 3.67058851 48.04247107 6.32432238 48 9 C47.01 9 46.02 9 45 9 C45.66 9.33 46.32 9.66 47 10 C48.06189112 20.61891125 48 31.32812627 48 42 C32.16 42 16.32 42 0 42 C0 28.14 0 14.28 0 0 Z " fill="#6FC29A" transform="translate(370,295)"/>
<path d="M0 0 C10.80458457 -0.02255075 21.60915363 -0.04091493 32.41375637 -0.05181217 C37.4302247 -0.05704107 42.44667615 -0.06413883 47.46313477 -0.07543945 C52.30009694 -0.0862681 57.13704284 -0.09227679 61.97401619 -0.09487724 C63.82368285 -0.09673153 65.67334857 -0.10035222 67.52300835 -0.10573006 C70.10447014 -0.1129402 72.68586382 -0.11399095 75.26733398 -0.11352539 C76.03985001 -0.11712067 76.81236603 -0.12071594 77.60829163 -0.12442017 C82.88594784 -0.11405216 82.88594784 -0.11405216 84 1 C84 8.26 84 15.52 84 23 C56.28 23 28.56 23 0 23 C0 15.41 0 7.82 0 0 Z " fill="#FBFBFB" transform="translate(67,413)"/>
<path d="M0 0 C27.72 0 55.44 0 84 0 C84 7.26 84 14.52 84 22 C56.28 22 28.56 22 0 22 C0 14.74 0 7.48 0 0 Z " fill="#FBFBFB" transform="translate(269,414)"/>
<path d="M0 0 C27.72 0 55.44 0 84 0 C84 7.26 84 14.52 84 22 C56.28 22 28.56 22 0 22 C0 14.74 0 7.48 0 0 Z " fill="#66C1F9" transform="translate(269,271)"/>
<path d="M0 0 C27.72 0 55.44 0 84 0 C84 7.26 84 14.52 84 22 C56.28 22 28.56 22 0 22 C0 14.74 0 7.48 0 0 Z " fill="#E05C3A" transform="translate(168,271)"/>
<path d="M0 0 C5.76105958 3.73097192 8.88129688 8.94019879 11.05078125 15.328125 C11.05078125 16.648125 11.05078125 17.968125 11.05078125 19.328125 C5.77078125 19.328125 0.49078125 19.328125 -4.94921875 19.328125 C-5.93921875 17.348125 -6.92921875 15.368125 -7.94921875 13.328125 C-10.41258 11.39262687 -12.18357326 11.29774571 -15.32421875 10.890625 C-20.13454865 11.47118206 -21.56314468 12.94205093 -24.94921875 16.328125 C-26.49880023 19.42728796 -26.21602948 22.67884349 -26.26171875 26.078125 C-26.30522461 27.13386719 -26.30522461 27.13386719 -26.34960938 28.2109375 C-26.41186016 33.36338684 -25.33180102 36.23639283 -21.94921875 40.328125 C-18.50731213 42.04907831 -14.72035052 41.70456596 -10.94921875 41.328125 C-7.2894426 39.45131672 -6.87126349 38.17221447 -4.94921875 34.328125 C0.33078125 34.328125 5.61078125 34.328125 11.05078125 34.328125 C9.87050456 41.40978514 7.57613644 46.33387454 2.17578125 51.140625 C-6.06042269 56.90596776 -12.96058657 57.10899527 -22.94921875 56.328125 C-29.01730925 55.19213302 -33.90227648 51.91054054 -37.94921875 47.328125 C-43.56711334 38.56000914 -44.85522794 29.6000042 -43.94921875 19.328125 C-42.1037256 11.57915091 -38.24793278 5.56036418 -31.90234375 0.7890625 C-22.64435546 -4.77194389 -9.67021485 -4.61569919 0 0 Z " fill="#020506" transform="translate(297.94921875,20.671875)"/>
<path d="M0 0 C5.73299952 3.447613 10.5735783 8.32959756 12.3125 14.9375 C12.3125 16.5875 12.3125 18.2375 12.3125 19.9375 C7.0325 19.9375 1.7525 19.9375 -3.6875 19.9375 C-4.6775 17.9575 -5.6675 15.9775 -6.6875 13.9375 C-10.3796187 11.47608753 -13.40104805 11.25099793 -17.6875 11.9375 C-21.24529813 14.10311625 -23.19368698 16.08122497 -24.6875 19.9375 C-25.04246078 23.23988851 -25.04246078 23.23988851 -25 26.8125 C-25.01675781 28.00617187 -25.03351562 29.19984375 -25.05078125 30.4296875 C-24.65159144 34.28422998 -23.72729372 36.66045435 -21.6875 39.9375 C-17.46166295 42.7547247 -13.65179984 42.61297031 -8.6875 41.9375 C-5.58950019 39.74623184 -4.88397888 38.52693664 -3.6875 34.9375 C1.5925 34.9375 6.8725 34.9375 12.3125 34.9375 C11.26484396 42.27109229 9.51414387 47.65005996 3.53515625 52.328125 C1.75 53.375 1.75 53.375 -1.6875 54.9375 C-2.43515625 55.29070312 -3.1828125 55.64390625 -3.953125 56.0078125 C-11.12019211 58.44461532 -20.30832501 58.07592545 -27.1875 54.9375 C-34.19839311 50.80795564 -39.32449068 44.78491634 -41.6875 36.9375 C-42.11154473 33.98678351 -42.16413476 31.10271347 -42.125 28.125 C-42.11887695 27.33327393 -42.11275391 26.54154785 -42.10644531 25.72583008 C-41.88478945 17.40776744 -39.81108688 9.89098725 -33.6875 3.9375 C-24.1053328 -2.88469206 -11.03572149 -5.14662853 0 0 Z " fill="#010304" transform="translate(76.6875,20.0625)"/>
<path d="M0 0 C5.43869074 3.10658015 8.64077695 6.84776185 10.95703125 12.734375 C12.76622196 19.65875958 12.04950672 26.44592286 8.8359375 32.8046875 C5.52091851 37.78690902 1.17614221 40.98684022 -4.5 42.8125 C-11.56269241 43.50882179 -19.34681586 43.82118033 -25.5 39.8125 C-30.03069466 35.61628616 -33.25473122 31.4477134 -33.8359375 25.203125 C-34.17661986 9.92214021 -34.17661986 9.92214021 -29.5 4.8125 C-20.7006852 -2.38260759 -10.70757394 -5.07535822 0 0 Z " fill="#010506" transform="translate(202.5,34.1875)"/>
<path d="M0 0 C4.92548825 3.74908816 8.58600631 8.16286471 9.75 14.33203125 C10.62968883 22.63484777 10.00755105 29.59280672 4.75 36.33203125 C-0.47362641 41.35474895 -5.6582423 42.73967563 -12.8125 43.01953125 C-19.30535499 42.72469929 -24.35059471 41.76482652 -29.25 37.33203125 C-35.25678117 29.87433675 -36.02972832 22.73332703 -35.25 13.33203125 C-33.57250986 7.06670663 -29.54838391 2.88767961 -24.25 -0.66796875 C-17.03844786 -4.35760008 -6.98256776 -4.11680558 0 0 Z " fill="#010404" transform="translate(130.25,34.66796875)"/>
<path d="M0 0 C6.67525404 -0.02290404 13.3503728 -0.04283264 20.02563477 -0.05493164 C22.29842591 -0.05997325 24.5712138 -0.06680637 26.84399414 -0.07543945 C30.10303551 -0.08751261 33.36203417 -0.09322987 36.62109375 -0.09765625 C37.64400009 -0.10281754 38.66690643 -0.10797882 39.72080994 -0.11329651 C40.66170975 -0.11337204 41.60260956 -0.11344757 42.57202148 -0.11352539 C43.40475082 -0.115746 44.23748016 -0.11796661 45.09544373 -0.12025452 C47 0 47 0 48 1 C48.36090226 8.45864662 48.36090226 8.45864662 46 12 C45.67 12.33 45.34 12.66 45 13 C45.99 13 46.98 13 48 13 C48 19.93 48 26.86 48 34 C32.16 34 16.32 34 0 34 C0 22.78 0 11.56 0 0 Z " fill="#64C0F9" transform="translate(370,377)"/>
<path d="M0 0 C27.39 0 54.78 0 83 0 C83 6.27 83 12.54 83 19 C55.61 19 28.22 19 0 19 C0 12.73 0 6.46 0 0 Z " fill="#E05836" transform="translate(270,335)"/>
<path d="M0 0 C15.51 0 31.02 0 47 0 C47 10.89 47 21.78 47 33 C31.49 33 15.98 33 0 33 C0 22.11 0 11.22 0 0 Z " fill="#9080F7" transform="translate(371,341)"/>
<path d="M0 0 C3.5233726 2.03674513 5.32009209 4.65190293 7.1015625 8.21484375 C7.18805701 10.69584109 7.21721304 13.14829303 7.19921875 15.62890625 C7.1978038 16.35854584 7.19638885 17.08818542 7.19493103 17.8399353 C7.18932781 20.1732796 7.17677485 22.50652839 7.1640625 24.83984375 C7.15904791 26.42057153 7.15448493 28.00130082 7.15039062 29.58203125 C7.14020767 33.45970193 7.12063305 37.33716577 7.1015625 41.21484375 C2.1515625 41.21484375 -2.7984375 41.21484375 -7.8984375 41.21484375 C-8.2284375 40.22484375 -8.5584375 39.23484375 -8.8984375 38.21484375 C-9.6615625 38.87484375 -10.4246875 39.53484375 -11.2109375 40.21484375 C-15.73987057 43.23771831 -20.66488629 42.85346161 -25.8984375 42.21484375 C-29.52894857 40.98306321 -31.26004569 39.93835447 -33.7734375 37.08984375 C-35.35847847 33.03918348 -35.57213991 29.50685801 -34.8984375 25.21484375 C-32.49855122 20.23046456 -30.090903 18.03676147 -24.8984375 16.21484375 C-21.51524568 15.59672101 -18.13695429 15.08834936 -14.7265625 14.64453125 C-11.95641806 14.37207893 -11.95641806 14.37207893 -9.8984375 13.21484375 C-10.2284375 11.89484375 -10.5584375 10.57484375 -10.8984375 9.21484375 C-13.2084375 9.21484375 -15.5184375 9.21484375 -17.8984375 9.21484375 C-18.2284375 10.20484375 -18.5584375 11.19484375 -18.8984375 12.21484375 C-23.5184375 12.21484375 -28.1384375 12.21484375 -32.8984375 12.21484375 C-31.66081374 4.78910118 -31.66081374 4.78910118 -27.8984375 1.21484375 C-18.97651827 -4.47960366 -9.48721173 -4.23159761 0 0 Z " fill="#010506" transform="translate(348.8984375,34.78515625)"/>
<path d="M0 0 C15.84 0 31.68 0 48 0 C48 6.93 48 13.86 48 21 C47 22 47 22 45.09544373 22.12025452 C44.26271439 22.11803391 43.42998505 22.11581329 42.57202148 22.11352539 C41.63112167 22.11344986 40.69022186 22.11337433 39.72080994 22.11329651 C38.69790359 22.10813522 37.67499725 22.10297394 36.62109375 22.09765625 C35.57929459 22.0962413 34.53749542 22.09482635 33.46412659 22.09336853 C30.12188906 22.0877508 26.77971743 22.0751953 23.4375 22.0625 C21.17773534 22.05748728 18.91796963 22.05292398 16.65820312 22.04882812 C11.10542266 22.03862456 5.55278548 22.01905264 0 22 C0 14.74 0 7.48 0 0 Z " fill="#E26444" transform="translate(370,271)"/>
<path d="M0 0 C5.28 0 10.56 0 16 0 C16 19.47 16 38.94 16 59 C10.72 59 5.44 59 0 59 C0 39.53 0 20.06 0 0 Z " fill="#030709" transform="translate(363,18)"/>
<path d="M0 0 C5.28 0 10.56 0 16 0 C16 19.14 16 38.28 16 58 C10.72 58 5.44 58 0 58 C0 38.86 0 19.72 0 0 Z " fill="#030708" transform="translate(146,18)"/>
<path d="M0 0 C0 4.62 0 9.24 0 14 C-2.50651042 14.16276042 -5.01302083 14.32552083 -7.51953125 14.48828125 C-10.46322939 15.09556386 -11.21555929 15.61315235 -13 18 C-13.5060736 20.8028729 -13.5060736 20.8028729 -13.51171875 23.98046875 C-13.54716797 25.14384766 -13.58261719 26.30722656 -13.61914062 27.50585938 C-13.64169922 28.72080078 -13.66425781 29.93574219 -13.6875 31.1875 C-13.72166016 32.41404297 -13.75582031 33.64058594 -13.79101562 34.90429688 C-13.87358776 37.93587377 -13.9384673 40.96792309 -14 44 C-19.28 44 -24.56 44 -30 44 C-30 29.81 -30 15.62 -30 1 C-25.05 1 -20.1 1 -15 1 C-14.67 2.98 -14.34 4.96 -14 7 C-13.5875 6.21625 -13.175 5.4325 -12.75 4.625 C-9.14874755 -0.77687868 -6.72057324 0 0 0 Z " fill="#020507" transform="translate(250,32)"/>
<path d="M0 0 C0.495 1.98 0.495 1.98 1 4 C0.505 3.01 0.505 3.01 0 2 C-0.391875 2.474375 -0.78375 2.94875 -1.1875 3.4375 C-3.40908173 5.35265666 -5.16036935 5.47691014 -8 6 C-8.33 6.66 -8.66 7.32 -9 8 C-8.01 7.67 -7.02 7.34 -6 7 C-5.505 7.495 -5.505 7.495 -5 8 C-3.14712498 8.07226502 -1.29166122 8.0838122 0.5625 8.0625 C1.57441406 8.05347656 2.58632812 8.04445313 3.62890625 8.03515625 C4.41136719 8.02355469 5.19382813 8.01195312 6 8 C6 9.32 6 10.64 6 12 C4.9941687 11.99214478 4.9941687 11.99214478 3.96801758 11.98413086 C0.916188 11.96328395 -2.13562656 11.95031531 -5.1875 11.9375 C-6.24259766 11.92912109 -7.29769531 11.92074219 -8.38476562 11.91210938 C-9.40634766 11.90888672 -10.42792969 11.90566406 -11.48046875 11.90234375 C-12.41785889 11.89710693 -13.35524902 11.89187012 -14.32104492 11.88647461 C-16.98049477 11.99917343 -19.40920573 12.40623351 -22 13 C-18.91190305 14.76462683 -17.76687864 15 -14 15 C-14 16.32 -14 17.64 -14 19 C-14.7113208 18.99476318 -15.4226416 18.98952637 -16.15551758 18.98413086 C-19.37450275 18.96335982 -22.59347383 18.95033942 -25.8125 18.9375 C-26.93205078 18.92912109 -28.05160156 18.92074219 -29.20507812 18.91210938 C-30.27822266 18.90888672 -31.35136719 18.90566406 -32.45703125 18.90234375 C-33.44678955 18.89710693 -34.43654785 18.89187012 -35.45629883 18.88647461 C-38.12392734 18.88930041 -38.12392734 18.88930041 -41 20 C-40.67 18.68 -40.34 17.36 -40 16 C-37.69 15.34 -35.38 14.68 -33 14 C-33.66 13.34 -34.32 12.68 -35 12 C-35.125 9.375 -35.125 9.375 -35 7 C-34.34 7.33 -33.68 7.66 -33 8 C-31.00045254 8.04254356 -28.99958364 8.04080783 -27 8 C-25.20818004 8 -23.41603523 8.01728843 -21.625 8.0703125 C-20.325625 8.09738281 -20.325625 8.09738281 -19 8.125 C-17.700625 8.15980469 -17.700625 8.15980469 -16.375 8.1953125 C-13.73156159 8.17105811 -13.73156159 8.17105811 -11 6 C-11.99 5.67 -12.98 5.34 -14 5 C-14 3.68 -14 2.36 -14 1 C-9.38 0.67 -4.76 0.34 0 0 Z " fill="#A7DBC4" transform="translate(120,312)"/>
<path d="M0 0 C15.51 0 31.02 0 47 0 C47 0.33 47 0.66 47 1 C31.82 1 16.64 1 1 1 C1 11.56 1 22.12 1 33 C16.18 33 31.36 33 47 33 C46.67 28.71 46.34 24.42 46 20 C44.081875 20 42.16375 20 40.1875 20 C36.79166667 20 33.39583333 20 30 20 C29.75 17.6875 29.75 17.6875 30 15 C31.875 13.4375 31.875 13.4375 34 12 C34.66 10.68 35.32 9.36 36 8 C38.97 8.33 41.94 8.66 45 9 C45 10.32 45 11.64 45 13 C45.99 13 46.98 13 48 13 C48 19.93 48 26.86 48 34 C32.16 34 16.32 34 0 34 C0 22.78 0 11.56 0 0 Z " fill="#A5DDFB" transform="translate(370,377)"/>
<path d="M0 0 C3.375 1.0625 3.375 1.0625 4.56640625 2.7890625 C6.43121289 8.03214205 6.14442284 14.03770304 4.1875 19.1875 C2.375 21.0625 2.375 21.0625 -0.0625 22.125 C-2.625 22.0625 -2.625 22.0625 -4.875 20.25 C-8.58233359 15.61583301 -8.20326792 10.80387432 -7.625 5.0625 C-5.55323994 0.75323908 -4.80814048 0.08289897 0 0 Z " fill="#5BC7F1" transform="translate(118.625,43.9375)"/>
<path d="M0 0 C3 0.4375 3 0.4375 4.8125 1.75 C7.69574992 5.84724988 7.49700559 10.63592056 7 15.4375 C5.8410416 17.85619578 4.87677904 19.56072096 3 21.4375 C0.125 21.75 0.125 21.75 -3 21.4375 C-5.41169645 19.11032562 -5.96757905 17.68923917 -6.3984375 14.34375 C-6.39070312 13.2196875 -6.38296875 12.095625 -6.375 10.9375 C-6.38273438 9.8134375 -6.39046875 8.689375 -6.3984375 7.53125 C-5.80829141 2.94893916 -4.69748311 0.68504962 0 0 Z " fill="#5AC6F0" transform="translate(191,43.5625)"/>
<path d="M0 0 C0.66 0.33 1.32 0.66 2 1 C3.99960012 1.039992 6.00047242 1.04346799 8 1 C8.33 1.99 8.66 2.98 9 4 C10.83284443 5.12516085 10.83284443 5.12516085 13 6 C13.66 6.37125 14.32 6.7425 15 7.125 C17.24693303 8.26721256 17.24693303 8.26721256 21 8 C21 9.32 21 10.64 21 12 C20.2886792 11.99476318 19.5773584 11.98952637 18.84448242 11.98413086 C15.62549725 11.96335982 12.40652617 11.95033942 9.1875 11.9375 C8.06794922 11.92912109 6.94839844 11.92074219 5.79492188 11.91210938 C4.72177734 11.90888672 3.64863281 11.90566406 2.54296875 11.90234375 C1.55321045 11.89710693 0.56345215 11.89187012 -0.45629883 11.88647461 C-3.12392734 11.88930041 -3.12392734 11.88930041 -6 13 C-5.67 11.68 -5.34 10.36 -5 9 C-2.69 8.34 -0.38 7.68 2 7 C1.34 6.34 0.68 5.68 0 5 C-0.125 2.375 -0.125 2.375 0 0 Z " fill="#74C59E" transform="translate(85,319)"/>
<path d="M0 0 C2.97 0.33 5.94 0.66 9 1 C9 2.32 9 3.64 9 5 C9.66 5 10.32 5 11 5 C11 6.98 11 8.96 11 11 C8.0651386 11.84903735 5.4880746 12.10895545 2.4375 12.0625 C1.67308594 12.05347656 0.90867187 12.04445313 0.12109375 12.03515625 C-0.57886719 12.02355469 -1.27882813 12.01195312 -2 12 C-2.99 12 -3.98 12 -5 12 C-5.33 12 -5.66 12 -6 12 C-6.25 9.6875 -6.25 9.6875 -6 7 C-4.125 5.4375 -4.125 5.4375 -2 4 C-1.34 2.68 -0.68 1.36 0 0 Z " fill="#68C2F9" transform="translate(406,385)"/>
<path d="M0 0 C0.9590625 0.2784375 0.9590625 0.2784375 1.9375 0.5625 C2.9584375 0.7790625 2.9584375 0.7790625 4 1 C4.33 0.67 4.66 0.34 5 0 C6.99958364 -0.04080783 9.00045254 -0.04254356 11 0 C11 4 11 4 10 6 C9.9603287 7.66619446 9.95615553 9.33391013 10 11 C5.33333333 11 0.66666667 11 -4 11 C-4 9.68 -4 8.36 -4 7 C-2.68 7 -1.36 7 0 7 C0 4.69 0 2.38 0 0 Z " fill="#7CCAFA" transform="translate(389,386)"/>
<path d="M0 0 C2.31 0 4.62 0 7 0 C7 0.66 7 1.32 7 2 C5.68 2 4.36 2 3 2 C3 2.66 3 3.32 3 4 C7.455 3.505 7.455 3.505 12 3 C12 3.66 12 4.32 12 5 C11.34 5 10.68 5 10 5 C10 6.98 10 8.96 10 11 C9.01 10.67 8.02 10.34 7 10 C7 9.01 7 8.02 7 7 C5.68 7 4.36 7 3 7 C3 8.32 3 9.64 3 11 C2.01 11 1.02 11 0 11 C0 7.37 0 3.74 0 0 Z " fill="#838383" transform="translate(371,123)"/>
<path d="M0 0 C0.36 5.4 0.36 5.4 -1.125 7.875 C-3.84218824 9.50531294 -5.89652746 9.33015665 -9 9 C-9.66 8.34 -10.32 7.68 -11 7 C-10.625 4.375 -10.625 4.375 -10 2 C-3.375 0 -3.375 0 0 0 Z " fill="#5BC7F1" transform="translate(340,58)"/>
<path d="M0 0 C0.33 0.66 0.66 1.32 1 2 C1.66 2 2.32 2 3 2 C3 1.34 3 0.68 3 0 C3.845625 0.185625 4.69125 0.37125 5.5625 0.5625 C9.05578638 1.16546399 9.05578638 1.16546399 12.75 0.4375 C13.8225 0.293125 14.895 0.14875 16 0 C16.66 0.66 17.32 1.32 18 2 C17.67 2.99 17.34 3.98 17 5 C11.39 5 5.78 5 0 5 C0 3.35 0 1.7 0 0 Z " fill="#EDAC9A" transform="translate(75,353)"/>
<path d="M0 0 C6.93 0 13.86 0 21 0 C20.01 0.495 20.01 0.495 19 1 C18.67 1.66 18.34 2.32 18 3 C16.25 3.37890625 16.25 3.37890625 14 3.5625 C13.19691406 3.6346875 12.39382813 3.706875 11.56640625 3.78125 C10.71949219 3.8534375 9.87257813 3.925625 9 4 C7.3119804 4.18276302 5.62443838 4.37001258 3.9375 4.5625 C2.638125 4.706875 1.33875 4.85125 0 5 C0 3.35 0 1.7 0 0 Z " fill="#C4BCFA" transform="translate(277,312)"/>
<path d="M0 0 C0.79664063 0.24556641 0.79664063 0.24556641 1.609375 0.49609375 C4.53876764 1.11356377 7.25822936 1.09501925 10.25 1.0625 C11.86648438 1.04896484 11.86648438 1.04896484 13.515625 1.03515625 C14.74539063 1.01775391 14.74539063 1.01775391 16 1 C16 2.32 16 3.64 16 5 C10.72 5 5.44 5 0 5 C0 3.35 0 1.7 0 0 Z " fill="#929292" transform="translate(293,421)"/>
<path d="M0 0 C1.99954746 -0.04254356 4.00041636 -0.04080783 6 0 C6.33 0.33 6.66 0.66 7 1 C9.67058851 1.14115161 12.32432238 1.04247107 15 1 C15 2.32 15 3.64 15 5 C10.05 5 5.1 5 0 5 C0 3.35 0 1.7 0 0 Z " fill="#A1D9BF" transform="translate(186,360)"/>
<path d="M0 0 C0.99 0.33 1.98 0.66 3 1 C4.72795352 1.06802967 6.45835365 1.08495645 8.1875 1.0625 C9.08855469 1.05347656 9.98960937 1.04445313 10.91796875 1.03515625 C11.94857422 1.01775391 11.94857422 1.01775391 13 1 C13.33 2.32 13.66 3.64 14 5 C9.05 5 4.1 5 -1 5 C-1 1 -1 1 0 0 Z " fill="#96D7FB" transform="translate(197,303)"/>
<path d="M0 0 C0.33 1.32 0.66 2.64 1 4 C1.66 4 2.32 4 3 4 C3.33 3.01 3.66 2.02 4 1 C5.0725 1.020625 6.145 1.04125 7.25 1.0625 C10.79575381 1.15643763 10.79575381 1.15643763 13.3125 0.375 C13.869375 0.25125 14.42625 0.1275 15 0 C17 2 17 2 17 5 C11.39 5 5.78 5 0 5 C0 3.35 0 1.7 0 0 Z " fill="#969696" transform="translate(75,255)"/>
<path d="M0 0 C0.66 0 1.32 0 2 0 C2 3.63 2 7.26 2 11 C0.02 11 -1.96 11 -4 11 C-4.33 8.69 -4.66 6.38 -5 4 C-3.35 3.67 -1.7 3.34 0 3 C0 2.01 0 1.02 0 0 Z " fill="#A6A6A6" transform="translate(194,123)"/>
<path d="M0 0 C1.155 0.165 2.31 0.33 3.5 0.5 C7.69907803 1.03238311 11.77063041 1.07552446 16 1 C16 2.32 16 3.64 16 5 C10.72 5 5.44 5 0 5 C0 3.35 0 1.7 0 0 Z " fill="#8D8D8D" transform="translate(91,421)"/>
<path d="M0 0 C0.75925781 0.08378906 1.51851563 0.16757812 2.30078125 0.25390625 C3.29464844 0.35574219 4.28851563 0.45757812 5.3125 0.5625 C6.29863281 0.66691406 7.28476563 0.77132813 8.30078125 0.87890625 C11.09930347 1.16602527 11.09930347 1.16602527 14 0 C14.99 0.66 15.98 1.32 17 2 C17 2.99 17 3.98 17 5 C16.278125 4.814375 15.55625 4.62875 14.8125 4.4375 C11.823421 3.97253216 9.92402062 4.34209536 7 5 C2.42553191 5.21276596 2.42553191 5.21276596 0 4 C0 2.68 0 1.36 0 0 Z " fill="#AFE1FC" transform="translate(75,387)"/>
<path d="M0 0 C0.66 0 1.32 0 2 0 C2 0.66 2 1.32 2 2 C2.99 2 3.98 2 5 2 C5 2.99 5 3.98 5 5 C-0.94 5 -6.88 5 -13 5 C-12.67 3.68 -12.34 2.36 -12 1 C-11.505 1.165 -11.01 1.33 -10.5 1.5 C-6.96555911 2.20688818 -3.60309299 2.06005155 0 2 C0 1.34 0 0.68 0 0 Z " fill="#A4DCFB" transform="translate(391,177)"/>
<path d="M0 0 C0.75925781 0.08378906 1.51851563 0.16757812 2.30078125 0.25390625 C3.29464844 0.35574219 4.28851563 0.45757812 5.3125 0.5625 C6.29863281 0.66691406 7.28476563 0.77132813 8.30078125 0.87890625 C11.09930347 1.16602527 11.09930347 1.16602527 14 0 C14 1.65 14 3.3 14 5 C9.38 5 4.76 5 0 5 C0 3.35 0 1.7 0 0 Z " fill="#939393" transform="translate(75,421)"/>
<path d="M0 0 C0.33 1.32 0.66 2.64 1 4 C-1.31 4.66 -3.62 5.32 -6 6 C-6 5.34 -6 4.68 -6 4 C-7.65 4 -9.3 4 -11 4 C-10.625 2.0625 -10.625 2.0625 -10 0 C-6.7169902 -1.6415049 -3.57454967 -0.51888624 0 0 Z " fill="#94D3B6" transform="translate(396,311)"/>
<path d="M0 0 C0.75925781 0.08378906 1.51851562 0.16757813 2.30078125 0.25390625 C3.29464844 0.35574219 4.28851563 0.45757812 5.3125 0.5625 C6.29863281 0.66691406 7.28476563 0.77132812 8.30078125 0.87890625 C11.09930347 1.16602527 11.09930347 1.16602527 14 0 C14 1.65 14 3.3 14 5 C12.04174127 5.02694851 10.08337774 5.04637218 8.125 5.0625 C7.03445312 5.07410156 5.94390625 5.08570313 4.8203125 5.09765625 C2 5 2 5 0 4 C0 2.68 0 1.36 0 0 Z " fill="#939393" transform="translate(176,153)"/>
<path d="M0 0 C0.33 0.66 0.66 1.32 1 2 C1.66 2 2.32 2 3 2 C3.33 1.34 3.66 0.68 4 0 C4.515625 0.185625 5.03125 0.37125 5.5625 0.5625 C8.85908739 1.15419517 11.72245735 0.567267 15 0 C15 1.65 15 3.3 15 5 C11.04 5 7.08 5 3 5 C3 4.34 3 3.68 3 3 C2.34 3 1.68 3 1 3 C0.67 3.66 0.34 4.32 0 5 C0 3.35 0 1.7 0 0 Z " fill="#7D7D7D" transform="translate(378,421)"/>
<path d="M0 0 C4.62 0 9.24 0 14 0 C14.33 1.32 14.66 2.64 15 4 C13.52093108 4.02689216 12.04172517 4.04634621 10.5625 4.0625 C9.32693359 4.07990234 9.32693359 4.07990234 8.06640625 4.09765625 C6 4 6 4 5 3 C2.94603274 3.40929986 2.94603274 3.40929986 1 4 C0.67 2.68 0.34 1.36 0 0 Z " fill="#C1B9F9" transform="translate(287,319)"/>
<path d="M0 0 C0.33 0.66 0.66 1.32 1 2 C5.34464536 1.39174965 9.67551867 0.73832608 14 0 C14 1.65 14 3.3 14 5 C9.38 5 4.76 5 0 5 C0 3.35 0 1.7 0 0 Z " fill="#ABDFFB" transform="translate(176,303)"/>
<path d="M0 0 C0.33 0.66 0.66 1.32 1 2 C1.66 2 2.32 2 3 2 C3.33 1.34 3.66 0.68 4 0 C4.515625 0.185625 5.03125 0.37125 5.5625 0.5625 C8.85908739 1.15419517 11.72245735 0.567267 15 0 C14.67 1.65 14.34 3.3 14 5 C12.00045254 5.04254356 9.99958364 5.04080783 8 5 C7.67 4.67 7.34 4.34 7 4 C4.94603274 4.40929986 4.94603274 4.40929986 3 5 C3 4.34 3 3.68 3 3 C2.34 3 1.68 3 1 3 C0.67 3.66 0.34 4.32 0 5 C0 3.35 0 1.7 0 0 Z " fill="#828282" transform="translate(378,153)"/>
<path d="M0 0 C4.29 0 8.58 0 13 0 C13.33 1.32 13.66 2.64 14 4 C9.25045352 4.62289134 4.79285843 5 0 5 C0 3.35 0 1.7 0 0 Z " fill="#979797" transform="translate(208,405)"/>
<path d="M0 0 C0.99 0 1.98 0 3 0 C3.79535156 -0.01160156 4.59070313 -0.02320313 5.41015625 -0.03515625 C6.72306641 -0.04869141 6.72306641 -0.04869141 8.0625 -0.0625 C8.94035156 -0.07410156 9.81820312 -0.08570313 10.72265625 -0.09765625 C13 0 13 0 15 1 C15 1.99 15 2.98 15 4 C10.05 4 5.1 4 0 4 C0 2.68 0 1.36 0 0 Z " fill="#EDAA98" transform="translate(75,212)"/>
<path d="M0 0 C0.75925781 0.08378906 1.51851563 0.16757813 2.30078125 0.25390625 C3.29464844 0.35574219 4.28851563 0.45757812 5.3125 0.5625 C6.29863281 0.66691406 7.28476563 0.77132812 8.30078125 0.87890625 C11.09930347 1.16602527 11.09930347 1.16602527 14 0 C13.67 1.32 13.34 2.64 13 4 C8.60563789 4.85743651 4.47427924 5.08948558 0 5 C0 3.35 0 1.7 0 0 Z " fill="#949494" transform="translate(75,153)"/>
<path d="M0 0 C0.33 0.66 0.66 1.32 1 2 C1.66 2 2.32 2 3 2 C3.33 1.34 3.66 0.68 4 0 C4.53625 0.185625 5.0725 0.37125 5.625 0.5625 C8.61990614 1.11419324 11.03745829 0.60597444 14 0 C14 1.65 14 3.3 14 5 C10.37 5 6.74 5 3 5 C3 4.34 3 3.68 3 3 C2.34 3 1.68 3 1 3 C0.67 3.66 0.34 4.32 0 5 C0 3.35 0 1.7 0 0 Z " fill="#8F8F8F" transform="translate(277,421)"/>
<path d="M0 0 C6.93 0.495 6.93 0.495 14 1 C13.67 1.99 13.34 2.98 13 4 C8.61414671 4.70173653 4.44209357 5.10834375 0 5 C0 3.35 0 1.7 0 0 Z " fill="#7C7C7C" transform="translate(180,405)"/>
<path d="M0 0 C0.33 0.66 0.66 1.32 1 2 C6.445 1.505 6.445 1.505 12 1 C12.33 2.32 12.66 3.64 13 5 C8.05 5 3.1 5 -2 5 C-2 4.01 -2 3.02 -2 2 C-1.34 2 -0.68 2 0 2 C0 1.34 0 0.68 0 0 Z " fill="#A3DCFB" transform="translate(400,177)"/>
<path d="M0 0 C3.96 0.33 7.92 0.66 12 1 C11.67 2.32 11.34 3.64 11 5 C7.37 5 3.74 5 0 5 C0 3.35 0 1.7 0 0 Z " fill="#9CD7BC" transform="translate(388,303)"/>
<path d="M0 0 C0.680625 0.165 1.36125 0.33 2.0625 0.5 C5.4164822 1.07089059 8.60389805 1.06659023 12 1 C11.67 2.32 11.34 3.64 11 5 C7.37 5 3.74 5 0 5 C0 3.35 0 1.7 0 0 Z " fill="#939393" transform="translate(394,421)"/>
<path d="M0 0 C4.29 0.33 8.58 0.66 13 1 C13 1.99 13 2.98 13 4 C8.05 4 3.1 4 -2 4 C-1.34 2.68 -0.68 1.36 0 0 Z " fill="#A9DFFB" transform="translate(96,279)"/>
<path d="M0 0 C0 0.66 0 1.32 0 2 C0.99 2 1.98 2 3 2 C2.67 2.99 2.34 3.98 2 5 C-6.57142857 6.28571429 -6.57142857 6.28571429 -10 5 C-10 4.01 -10 3.02 -10 2 C-9.05125 1.855625 -8.1025 1.71125 -7.125 1.5625 C-4.53873073 1.09697153 -2.56078963 0 0 0 Z " fill="#EDA896" transform="translate(394,278)"/>
<path d="M0 0 C0.33 0.66 0.66 1.32 1 2 C1.66 2 2.32 2 3 2 C3.33 1.34 3.66 0.68 4 0 C4.53625 0.185625 5.0725 0.37125 5.625 0.5625 C8.61990614 1.11419324 11.03745829 0.60597444 14 0 C13.67 1.32 13.34 2.64 13 4 C4.42857143 5.42857143 4.42857143 5.42857143 1 3 C0.67 3.66 0.34 4.32 0 5 C0 3.35 0 1.7 0 0 Z " fill="#858585" transform="translate(277,153)"/>
<path d="M0 0 C-0.33 1.32 -0.66 2.64 -1 4 C-4.3 4 -7.6 4 -11 4 C-11 3.01 -11 2.02 -11 1 C-7.2297564 -1.56376565 -4.32597804 -0.83191885 0 0 Z " fill="#8E8E8E" transform="translate(187,413)"/>
<path d="M0 0 C3.63 0.33 7.26 0.66 11 1 C10.67 2.32 10.34 3.64 10 5 C6.7 5 3.4 5 0 5 C0 3.35 0 1.7 0 0 Z " fill="#C2BAFA" transform="translate(277,303)"/>
<path d="M0 0 C0 1.65 0 3.3 0 5 C-3.3 5 -6.6 5 -10 5 C-10 3.68 -10 2.36 -10 1 C-8.88625 1.020625 -7.7725 1.04125 -6.625 1.0625 C-3.92916508 1.01602009 -2.35646307 0 0 0 Z " fill="#EA9B86" transform="translate(310,342)"/>
<path d="M0 0 C7.75 -0.125 7.75 -0.125 10 1 C9.67 2.32 9.34 3.64 9 5 C8.443125 4.814375 7.88625 4.62875 7.3125 4.4375 C4.600867 3.92448835 2.65628961 4.3359276 0 5 C0 3.35 0 1.7 0 0 Z " fill="#C1B8FA" transform="translate(378,356)"/>
<path d="M0 0 C0 1.32 0 2.64 0 4 C-2.97 4 -5.94 4 -9 4 C-9 2.68 -9 1.36 -9 0 C-5.52176885 -1.15941038 -3.54104422 -0.70820884 0 0 Z " fill="#B7ADF9" transform="translate(301,304)"/>
<path d="M0 0 C3.63 0 7.26 0 11 0 C11.33 1.32 11.66 2.64 12 4 C8.37 4 4.74 4 1 4 C0.67 2.68 0.34 1.36 0 0 Z " fill="#ECA491" transform="translate(280,222)"/>
<path d="M0 0 C3.96 0.33 7.92 0.66 12 1 C12 2.32 12 3.64 12 5 C9.33333333 5 6.66666667 5 4 5 C3.67 4.34 3.34 3.68 3 3 C2.34 3 1.68 3 1 3 C0.67 3.66 0.34 4.32 0 5 C0 3.35 0 1.7 0 0 Z " fill="#CAC2FA" transform="translate(378,348)"/>
<path d="M0 0 C0.66 0.66 1.32 1.32 2 2 C2.66 2.33 3.32 2.66 4 3 C4 3.99 4 4.98 4 6 C2.39125 5.7215625 2.39125 5.7215625 0.75 5.4375 C-2.40391546 5.0695432 -4.09818492 4.95534657 -7 6 C-7 4.68 -7 3.36 -7 2 C-4.35261084 0.5393715 -3.10551666 0 0 0 Z " fill="#838383" transform="translate(319,152)"/>
<path d="M0 0 C2.625 0.375 2.625 0.375 5 1 C5 1.99 5 2.98 5 4 C3.35 4 1.7 4 0 4 C0 4.66 0 5.32 0 6 C1.65 6 3.3 6 5 6 C4.67 6.66 4.34 7.32 4 8 C2.35 7.67 0.7 7.34 -1 7 C-1.625 4.625 -1.625 4.625 -2 2 C-1.34 1.34 -0.68 0.68 0 0 Z " fill="#545454" transform="translate(183,126)"/>
<path d="M0 0 C0 1.65 0 3.3 0 5 C-3.3 5 -6.6 5 -10 5 C-10 3.68 -10 2.36 -10 1 C-8.88625 1.020625 -7.7725 1.04125 -6.625 1.0625 C-3.92916508 1.01602009 -2.35646307 0 0 0 Z " fill="#818181" transform="translate(206,405)"/>
<path d="M0 0 C3.63 0 7.26 0 11 0 C10.67 0.99 10.34 1.98 10 3 C6.52674819 4.1577506 3.63932552 4.06866652 0 4 C0 2.68 0 1.36 0 0 Z " fill="#EDAA98" transform="translate(281,343)"/>
<path d="M0 0 C0.33 1.32 0.66 2.64 1 4 C0.67 3.34 0.34 2.68 0 2 C-0.33 2.66 -0.66 3.32 -1 4 C-2.77734375 4.703125 -2.77734375 4.703125 -4.9375 5.25 C-5.64777344 5.44078125 -6.35804687 5.6315625 -7.08984375 5.828125 C-8.03537109 5.91320312 -8.03537109 5.91320312 -9 6 C-11 4 -11 4 -12 1 C-6.06 0.505 -6.06 0.505 0 0 Z " fill="#EEB1A0" transform="translate(93,178)"/>
<path d="M0 0 C2.97 0.33 5.94 0.66 9 1 C9 2.32 9 3.64 9 5 C6.36 5 3.72 5 1 5 C0.67 3.35 0.34 1.7 0 0 Z " fill="#959595" transform="translate(98,153)"/>
<path d="M0 0 C0.66 0 1.32 0 2 0 C2 1.32 2 2.64 2 4 C2.66 4 3.32 4 4 4 C4 2.68 4 1.36 4 0 C4.99 0.33 5.98 0.66 7 1 C6.30058404 4.14737182 5.23921302 7.02588876 4 10 C3.34 10 2.68 10 2 10 C0.68373308 6.38026598 0 3.90432869 0 0 Z " fill="#393939" transform="translate(169,124)"/>
<path d="M0 0 C0.66 0 1.32 0 2 0 C2 1.98 2 3.96 2 6 C2.99 6 3.98 6 5 6 C5 4.02 5 2.04 5 0 C5.66 0 6.32 0 7 0 C7 2.64 7 5.28 7 8 C5.00045254 8.04254356 2.99958364 8.04080783 1 8 C0 7 0 7 -0.0625 3.4375 C-0.041875 2.303125 -0.02125 1.16875 0 0 Z " fill="#444444" transform="translate(76,126)"/>
<path d="M0 0 C0 0.99 0 1.98 0 3 C-2.97 3 -5.94 3 -9 3 C-9 1.68 -9 0.36 -9 -1 C-5.79937313 -2.60031344 -3.27728194 -1.03173691 0 0 Z " fill="#939393" transform="translate(198,414)"/>
<path d="M0 0 C0.99 0.66 1.98 1.32 3 2 C6.12521833 2.16699232 6.12521833 2.16699232 9 2 C9 2.66 9 3.32 9 4 C5.18137244 5.47537883 2.92154718 6.26049731 -1 5 C-1.99 5.495 -1.99 5.495 -3 6 C-3 4.35 -3 2.7 -3 1 C-2.01 0.67 -1.02 0.34 0 0 Z " fill="#7D7D7D" transform="translate(217,152)"/>
<path d="M0 0 C0.66 0 1.32 0 2 0 C2 1.98 2 3.96 2 6 C2.66 6 3.32 6 4 6 C4 4.02 4 2.04 4 0 C4.66 0 5.32 0 6 0 C6 2.64 6 5.28 6 8 C4.33388095 8.042721 2.66617115 8.04063832 1 8 C0 7 0 7 -0.0625 3.4375 C-0.041875 2.303125 -0.02125 1.16875 0 0 Z " fill="#484848" transform="translate(287,126)"/>
<path d="M0 0 C0.66 0 1.32 0 2 0 C2 0.99 2 1.98 2 3 C3.32 3 4.64 3 6 3 C6 5.31 6 7.62 6 10 C5.67 10 5.34 10 5 10 C5 8.35 5 6.7 5 5 C4.01 5 3.02 5 2 5 C2 6.98 2 8.96 2 11 C1.34 11 0.68 11 0 11 C0 7.37 0 3.74 0 0 Z " fill="#3B3B3B" transform="translate(279,123)"/>
<path d="M0 0 C3.3 0.33 6.6 0.66 10 1 C10 2.32 10 3.64 10 5 C7.03 5 4.06 5 1 5 C0.67 3.35 0.34 1.7 0 0 Z " fill="#ADE0FB" transform="translate(378,385)"/>
<path d="M0 0 C0 1.32 0 2.64 0 4 C-1.98567708 3.96744792 -3.97135417 3.93489583 -5.95703125 3.90234375 C-8.20305461 3.91736783 -8.20305461 3.91736783 -11 5 C-10.6875 3.0625 -10.6875 3.0625 -10 1 C-6.52674819 -0.1577506 -3.63932552 -0.06866652 0 0 Z " fill="#AEDFC9" transform="translate(90,327)"/>
<path d="M0 0 C0.33 0.66 0.66 1.32 1 2 C3.31 2 5.62 2 8 2 C8 2.99 8 3.98 8 5 C4.30458414 5.95024979 1.69541586 5.95024979 -2 5 C-2 3.68 -2 2.36 -2 1 C-1.34 0.67 -0.68 0.34 0 0 Z " fill="#ADDEC8" transform="translate(408,310)"/>
<path d="M0 0 C2.64 0.33 5.28 0.66 8 1 C8 2.32 8 3.64 8 5 C5.36 5 2.72 5 0 5 C0 3.35 0 1.7 0 0 Z " fill="#939393" transform="translate(200,153)"/>
<path d="M0 0 C2.64 0 5.28 0 8 0 C8 0.66 8 1.32 8 2 C7.01 2 6.02 2 5 2 C5 4.97 5 7.94 5 11 C4.34 11 3.68 11 3 11 C3 8.03 3 5.06 3 2 C2.01 2 1.02 2 0 2 C0 1.34 0 0.68 0 0 Z " fill="#4B4B4B" transform="translate(270,123)"/>
<path d="M0 0 C2.31 0 4.62 0 7 0 C6.01 0.495 6.01 0.495 5 1 C5 3.97 5 6.94 5 10 C4.01 10 3.02 10 2 10 C2 7.03 2 4.06 2 1 C1.34 0.67 0.68 0.34 0 0 Z " fill="#646464" transform="translate(68,124)"/>
<path d="M0 0 C0 1.32 0 2.64 0 4 C-3.3 4 -6.6 4 -10 4 C-10 3.01 -10 2.02 -10 1 C-6.52674819 -0.1577506 -3.63932552 -0.06866652 0 0 Z " fill="#8E8E8E" transform="translate(216,413)"/>
<path d="M0 0 C2.64 0 5.28 0 8 0 C8 1.32 8 2.64 8 4 C5.36 4 2.72 4 0 4 C0 2.68 0 1.36 0 0 Z " fill="#99D8FB" transform="translate(304,366)"/>
<path d="M0 0 C2.0625 0.4375 2.0625 0.4375 4 1 C4 1.99 4 2.98 4 4 C2.68 4 1.36 4 0 4 C0 4.66 0 5.32 0 6 C1.32 6.33 2.64 6.66 4 7 C2.125 7.625 2.125 7.625 0 8 C-0.66 7.34 -1.32 6.68 -2 6 C-1.44444444 1.44444444 -1.44444444 1.44444444 0 0 Z " fill="#474747" transform="translate(86,126)"/>
<path d="M0 0 C0 1.32 0 2.64 0 4 C-5.28 4 -10.56 4 -16 4 C-16 3.67 -16 3.34 -16 3 C-14.35 3 -12.7 3 -11 3 C-10.67 2.34 -10.34 1.68 -10 1 C-10 1.66 -10 2.32 -10 3 C-9.44570313 2.7834375 -8.89140625 2.566875 -8.3203125 2.34375 C-7.59585937 2.0653125 -6.87140625 1.786875 -6.125 1.5 C-5.40570313 1.2215625 -4.68640625 0.943125 -3.9453125 0.65625 C-2 0 -2 0 0 0 Z " fill="#A7A7A7" transform="translate(309,422)"/>
<path d="M0 0 C0.66 1.32 1.32 2.64 2 4 C-0.92824652 4.97608217 -2.95613276 5.08226668 -6 5 C-6.33 3.68 -6.66 2.36 -7 1 C-3.535 0.505 -3.535 0.505 0 0 Z " fill="#A4DCFB" transform="translate(414,392)"/>
<path d="M0 0 C-0.33 0.99 -0.66 1.98 -1 3 C-2.98 3 -4.96 3 -7 3 C-7.66 1.68 -8.32 0.36 -9 -1 C-5.22102349 -2.0497157 -3.35080929 -2.10976881 0 0 Z " fill="#EA9B85" transform="translate(93,355)"/>
<path d="M0 0 C0.99 0.495 0.99 0.495 2 1 C3.99960012 1.039992 6.00047242 1.04346799 8 1 C7.67 2.32 7.34 3.64 7 5 C2.25 6.125 2.25 6.125 0 5 C0 3.35 0 1.7 0 0 Z " fill="#AEDFC9" transform="translate(85,319)"/>
<path d="M0 0 C2.69082872 0.17635452 5.32851446 0.61835921 8 1 C8 2.32 8 3.64 8 5 C7.2575 4.814375 6.515 4.62875 5.75 4.4375 C3.05009037 4.00796892 1.55368923 4.14877026 -1 5 C-1 1 -1 1 0 0 Z " fill="#A8DEFB" transform="translate(406,385)"/>
<path d="M0 0 C0.66 1.32 1.32 2.64 2 4 C-1.32534757 5.10844919 -3.62182575 4.84454356 -7 4 C-7 3.01 -7 2.02 -7 1 C-3.535 0.505 -3.535 0.505 0 0 Z " fill="#C4BCFA" transform="translate(398,348)"/>
<path d="M0 0 C0.99 0.495 0.99 0.495 2 1 C3.99960012 1.039992 6.00047242 1.04346799 8 1 C8 2.32 8 3.64 8 5 C5.36 5 2.72 5 0 5 C0 3.35 0 1.7 0 0 Z " fill="#AFDFC9" transform="translate(406,303)"/>
<path d="M0 0 C0.86625 0.556875 0.86625 0.556875 1.75 1.125 C1.75 2.115 1.75 3.105 1.75 4.125 C-0.89 4.125 -3.53 4.125 -6.25 4.125 C-6.25 3.135 -6.25 2.145 -6.25 1.125 C-2.80384615 -1.09038462 -2.80384615 -1.09038462 0 0 Z " fill="#9A9A9A" transform="translate(292.25,255.875)"/>
<path d="M0 0 C0.86625 0.556875 0.86625 0.556875 1.75 1.125 C1.75 2.115 1.75 3.105 1.75 4.125 C-0.89 4.125 -3.53 4.125 -6.25 4.125 C-6.25 3.135 -6.25 2.145 -6.25 1.125 C-2.80384615 -1.09038462 -2.80384615 -1.09038462 0 0 Z " fill="#999999" transform="translate(191.25,255.875)"/>
<path d="M0 0 C1.671549 0.30791692 3.33805547 0.64386903 5 1 C5.99 1 6.98 1 8 1 C7.67 1.99 7.34 2.98 7 4 C2.545 4.495 2.545 4.495 -2 5 C-1 1 -1 1 0 0 Z " fill="#C8C0FA" transform="translate(304,311)"/>
<path d="M0 0 C0.33 0 0.66 0 1 0 C1 3.3 1 6.6 1 10 C0.34 9.67 -0.32 9.34 -1 9 C-1.625 6.9375 -1.625 6.9375 -2 5 C-2 6.65 -2 8.3 -2 10 C-2.99 9.67 -3.98 9.34 -5 9 C-5 7.35 -5 5.7 -5 4 C-3.35 3.67 -1.7 3.34 0 3 C0 2.01 0 1.02 0 0 Z " fill="#2E2E2E" transform="translate(194,123)"/>
<path d="M0 0 C1.67542976 0.28604898 3.34385343 0.61781233 5 1 C5 2.32 5 3.64 5 5 C3.02 5 1.04 5 -1 5 C-1 1 -1 1 0 0 Z " fill="#9FDBFB" transform="translate(96,387)"/>
<path d="M0 0 C2.31 0.33 4.62 0.66 7 1 C7.33 1.99 7.66 2.98 8 4 C7 5 7 5 4.5625 5.125 C2 5 2 5 0 4 C0 2.68 0 1.36 0 0 Z " fill="#A3DCFB" transform="translate(75,387)"/>
<path d="M0 0 C-0.33 1.32 -0.66 2.64 -1 4 C-3.31 4 -5.62 4 -8 4 C-8.33 3.01 -8.66 2.02 -9 1 C-3.375 -1.125 -3.375 -1.125 0 0 Z " fill="#A8DCC4" transform="translate(205,368)"/>
<path d="M0 0 C0 1.32 0 2.64 0 4 C-2.64 4 -5.28 4 -8 4 C-8 3.01 -8 2.02 -8 1 C-5.29120665 -0.35439668 -2.99066732 -0.06501451 0 0 Z " fill="#A8DCC5" transform="translate(106,327)"/>
<path d="M0 0 C2.64 0.33 5.28 0.66 8 1 C8.33 1.99 8.66 2.98 9 4 C5.62182575 4.84454356 3.32534757 5.10844919 0 4 C0 2.68 0 1.36 0 0 Z " fill="#B4E1CD" transform="translate(75,312)"/>
<path d="M0 0 C0.33 1.32 0.66 2.64 1 4 C1.66 4 2.32 4 3 4 C3 3.01 3 2.02 3 1 C4.98 1 6.96 1 9 1 C8.67 2.32 8.34 3.64 8 5 C5.36 5 2.72 5 0 5 C0 3.35 0 1.7 0 0 Z " fill="#8C8C8C" transform="translate(277,255)"/>
<path d="M0 0 C2.64 0 5.28 0 8 0 C8 1.32 8 2.64 8 4 C5.36 3.67 2.72 3.34 0 3 C0 2.01 0 1.02 0 0 Z " fill="#ADDEC8" transform="translate(193,361)"/>
<path d="M0 0 C3.63 0 7.26 0 11 0 C10.67 0.99 10.34 1.98 10 3 C6.7 3 3.4 3 0 3 C0 2.01 0 1.02 0 0 Z " fill="#B4E1CD" transform="translate(206,361)"/>
<path d="M0 0 C0 1.32 0 2.64 0 4 C-2.64 4 -5.28 4 -8 4 C-7.67 3.01 -7.34 2.02 -7 1 C-4 0 -4 0 0 0 Z " fill="#C4BCFA" transform="translate(397,356)"/>
<path d="M0 0 C2.31 0 4.62 0 7 0 C7 1.65 7 3.3 7 5 C4.69 4.67 2.38 4.34 0 4 C0 2.68 0 1.36 0 0 Z " fill="#A1DBFB" transform="translate(2,253)"/>
<path d="M0 0 C0 1.65 0 3.3 0 5 C-2.31 5 -4.62 5 -7 5 C-7 3.68 -7 2.36 -7 1 C-2.25 0 -2.25 0 0 0 Z " fill="#A3DCFB" transform="translate(392,392)"/>
<path d="M0 0 C1.98 0 3.96 0 6 0 C6 1.32 6 2.64 6 4 C5.01 4.495 5.01 4.495 4 5 C1.875 4.0625 1.875 4.0625 0 3 C0 2.01 0 1.02 0 0 Z " fill="#A6DDFB" transform="translate(394,386)"/>
<path d="M0 0 C0 1.32 0 2.64 0 4 C-1.98 4 -3.96 4 -6 4 C-6 2.68 -6 1.36 -6 0 C-3.50907189 -1.24546405 -2.58919267 -0.7767578 0 0 Z " fill="#AADDC6" transform="translate(81,320)"/>
<path d="M0 0 C0.33 1.32 0.66 2.64 1 4 C-2.3 4 -5.6 4 -9 4 C-9 3.01 -9 2.02 -9 1 C-7.88625 1.020625 -6.7725 1.04125 -5.625 1.0625 C-2.16784079 1.26380718 -2.16784079 1.26380718 0 0 Z " fill="#EFB6A7" transform="translate(208,279)"/>
<path d="M0 0 C1.98 0 3.96 0 6 0 C6.33 1.65 6.66 3.3 7 5 C4.69 4.67 2.38 4.34 0 4 C0 2.68 0 1.36 0 0 Z " fill="#ECA390" transform="translate(293,222)"/>
<path d="M0 0 C0 1.32 0 2.64 0 4 C-1.98 4 -3.96 4 -6 4 C-6 2.68 -6 1.36 -6 0 C-3.50907189 -1.24546405 -2.58919267 -0.7767578 0 0 Z " fill="#AADDC6" transform="translate(182,368)"/>
<path d="M0 0 C1.98 0 3.96 0 6 0 C6 1.32 6 2.64 6 4 C3 5 3 5 0 4 C0 2.68 0 1.36 0 0 Z " fill="#ECAA97" transform="translate(312,343)"/>
<path d="M0 0 C2.31 0.66 4.62 1.32 7 2 C6.67 2.99 6.34 3.98 6 5 C3.36 5 0.72 5 -2 5 C-1.125 1.125 -1.125 1.125 0 0 Z " fill="#D1CAFB" transform="translate(279,318)"/>
<path d="M0 0 C0 1.65 0 3.3 0 5 C-1.98 5 -3.96 5 -6 5 C-6 3.68 -6 2.36 -6 1 C-1.125 0 -1.125 0 0 0 Z " fill="#A6DDFB" transform="translate(89,279)"/>
<path d="M0 0 C0.33 1.32 0.66 2.64 1 4 C1.66 4 2.32 4 3 4 C3.33 3.01 3.66 2.02 4 1 C5.65 1 7.3 1 9 1 C8.67 2.32 8.34 3.64 8 5 C5.36 5 2.72 5 0 5 C0 3.35 0 1.7 0 0 Z " fill="#808080" transform="translate(176,255)"/>
<path d="M0 0 C2.00720923 0.28674418 4.0085944 0.61866701 6 1 C6 2.32 6 3.64 6 5 C5.4225 4.814375 4.845 4.62875 4.25 4.4375 C1.79307475 3.95976454 0.35602466 4.24270636 -2 5 C-1.125 1.125 -1.125 1.125 0 0 Z " fill="#7B7B7B" transform="translate(303,153)"/>
<path d="M0 0 C0 1.32 0 2.64 0 4 C-2.31 4 -4.62 4 -7 4 C-7 3.01 -7 2.02 -7 1 C-4 0 -4 0 0 0 Z " fill="#C6BEFA" transform="translate(407,356)"/>
<path d="M0 0 C2.97 0.495 2.97 0.495 6 1 C6 2.32 6 3.64 6 5 C4.02 5 2.04 5 0 5 C0 3.35 0 1.7 0 0 Z " fill="#A7DBC3" transform="translate(91,326)"/>
<path d="M0 0 C2.31 0 4.62 0 7 0 C7 0.99 7 1.98 7 3 C4.69 3.66 2.38 4.32 0 5 C0 3.35 0 1.7 0 0 Z " fill="#ACDEC8" transform="translate(390,312)"/>
<path d="M0 0 C2.97 0 5.94 0 9 0 C9 0.99 9 1.98 9 3 C4.545 3.495 4.545 3.495 0 4 C0 2.68 0 1.36 0 0 Z " fill="#B2E0CC" transform="translate(96,313)"/>
<path d="M0 0 C2.64 0 5.28 0 8 0 C8 0.99 8 1.98 8 3 C5.36 3 2.72 3 0 3 C0 2.01 0 1.02 0 0 Z " fill="#A4DDFB" transform="translate(203,179)"/>
<path d="M0 0 C2.64 0.33 5.28 0.66 8 1 C8 2.32 8 3.64 8 5 C7.4225 4.814375 6.845 4.62875 6.25 4.4375 C3.79307475 3.95976454 2.35602466 4.24270636 0 5 C0 3.35 0 1.7 0 0 Z " fill="#6D6D6D" transform="translate(402,153)"/>
<path d="M0 0 C2.31 0 4.62 0 7 0 C7 0.99 7 1.98 7 3 C4 4 4 4 0 4 C0 2.68 0 1.36 0 0 Z " fill="#868686" transform="translate(117,154)"/>
<path d="M0 0 C0.33 0.66 0.66 1.32 1 2 C1.94875 1.814375 2.8975 1.62875 3.875 1.4375 C7 1 7 1 9 2 C9 2.99 9 3.98 9 5 C6.03 4.67 3.06 4.34 0 4 C0 2.68 0 1.36 0 0 Z " fill="#B5E2CE" transform="translate(176,360)"/>
<path d="M0 0 C1.98 0 3.96 0 6 0 C6.33 0.99 6.66 1.98 7 3 C4.69 3.33 2.38 3.66 0 4 C0 2.68 0 1.36 0 0 Z " fill="#ECA895" transform="translate(211,280)"/>
<path d="M0 0 C0.66 0 1.32 0 2 0 C1.67 2.97 1.34 5.94 1 9 C0.01 9 -0.98 9 -2 9 C-1.855625 8.443125 -1.71125 7.88625 -1.5625 7.3125 C-0.97230872 4.88615805 -0.476571 2.45093655 0 0 Z " fill="#444444" transform="translate(178,124)"/>
<path d="M0 0 C2.475 0.495 2.475 0.495 5 1 C5.33 2.32 5.66 3.64 6 5 C4.02 5 2.04 5 0 5 C0 3.35 0 1.7 0 0 Z " fill="#9A9A9A" transform="translate(180,405)"/>
<path d="M0 0 C0.66 0.66 1.32 1.32 2 2 C1.67 2.99 1.34 3.98 1 5 C-0.98 5 -2.96 5 -5 5 C-5 4.01 -5 3.02 -5 2 C-3.35 1.34 -1.7 0.68 0 0 Z " fill="#8D8D8D" transform="translate(392,255)"/>
<path d="M0 0 C2.64 0 5.28 0 8 0 C7.67 0.99 7.34 1.98 7 3 C4.69 3 2.38 3 0 3 C0 2.01 0 1.02 0 0 Z " fill="#A9DFFB" transform="translate(304,179)"/>
<path d="M0 0 C0.33 0.66 0.66 1.32 1 2 C1.66 2 2.32 2 3 2 C3.33 1.34 3.66 0.68 4 0 C4.99 0.33 5.98 0.66 7 1 C7 2.32 7 3.64 7 5 C5.68 5 4.36 5 3 5 C3 4.34 3 3.68 3 3 C2.34 3 1.68 3 1 3 C0.67 3.66 0.34 4.32 0 5 C0 3.35 0 1.7 0 0 Z " fill="#747474" transform="translate(277,421)"/>
<path d="M0 0 C2.31 0 4.62 0 7 0 C6.67 1.32 6.34 2.64 6 4 C3.03 3.505 3.03 3.505 0 3 C0 2.01 0 1.02 0 0 Z " fill="#A7A7A7" transform="translate(399,422)"/>
<path d="M0 0 C0 1.65 0 3.3 0 5 C-1.65 5 -3.3 5 -5 5 C-5.33 4.34 -5.66 3.68 -6 3 C-5.67 2.34 -5.34 1.68 -5 1 C-3.3176559 0.47426747 -1.77322566 0 0 0 Z " fill="#A2DCFB" transform="translate(399,392)"/>
<path d="M0 0 C2.31 0 4.62 0 7 0 C7 1.32 7 2.64 7 4 C4.69 3.67 2.38 3.34 0 3 C0 2.01 0 1.02 0 0 Z " fill="#9FD8BF" transform="translate(119,320)"/>
<path d="M0 0 C0.66 0 1.32 0 2 0 C2.12375 0.639375 2.2475 1.27875 2.375 1.9375 C2.684375 2.9584375 2.684375 2.9584375 3 4 C3.66 4.33 4.32 4.66 5 5 C3.02 5 1.04 5 -1 5 C-1 1 -1 1 0 0 Z " fill="#A7DEFB" transform="translate(197,303)"/>
<path d="M0 0 C0 1.32 0 2.64 0 4 C-2.31 4 -4.62 4 -7 4 C-4.60295303 0.40442955 -4.24628445 0 0 0 Z " fill="#9E9E9E" transform="translate(107,422)"/>
<path d="M0 0 C2.31 0.33 4.62 0.66 7 1 C7 1.66 7 2.32 7 3 C4.69 3.66 2.38 4.32 0 5 C0 3.35 0 1.7 0 0 Z " fill="#828282" transform="translate(75,421)"/>
<path d="M0 0 C2.31 0.33 4.62 0.66 7 1 C6.67 1.99 6.34 2.98 6 4 C4.02 4 2.04 4 0 4 C0 2.68 0 1.36 0 0 Z " fill="#B3E2FC" transform="translate(277,365)"/>
<path d="M0 0 C1.98 0 3.96 0 6 0 C5.67 0.99 5.34 1.98 5 3 C3.35 3.33 1.7 3.66 0 4 C0 2.68 0 1.36 0 0 Z " fill="#EDAB99" transform="translate(300,343)"/>
<path d="M0 0 C0 1.65 0 3.3 0 5 C-0.99 5 -1.98 5 -3 5 C-3.33 4.67 -3.66 4.34 -4 4 C-4.99 4.33 -5.98 4.66 -7 5 C-7 4.01 -7 3.02 -7 2 C-1.125 0 -1.125 0 0 0 Z " fill="#A9DCC5" transform="translate(405,310)"/>
<path d="M0 0 C2.31 0 4.62 0 7 0 C6.67 1.32 6.34 2.64 6 4 C3.03 3.505 3.03 3.505 0 3 C0 2.01 0 1.02 0 0 Z " fill="#B6E2CE" transform="translate(393,304)"/>
<path d="M0 0 C2.64 0 5.28 0 8 0 C7.67 0.99 7.34 1.98 7 3 C4.69 3 2.38 3 0 3 C0 2.01 0 1.02 0 0 Z " fill="#AFE1FB" transform="translate(304,280)"/>
<path d="M0 0 C2.31 0.33 4.62 0.66 7 1 C7 1.99 7 2.98 7 4 C4.69 4 2.38 4 0 4 C0 2.68 0 1.36 0 0 Z " fill="#B2E2FC" transform="translate(277,279)"/>
<path d="M0 0 C2.64 0 5.28 0 8 0 C7.67 0.99 7.34 1.98 7 3 C4.69 3 2.38 3 0 3 C0 2.01 0 1.02 0 0 Z " fill="#F0BFB1" transform="translate(183,280)"/>
<path d="M0 0 C2.475 0.495 2.475 0.495 5 1 C5.33 2.32 5.66 3.64 6 5 C4.35 5 2.7 5 1 5 C0.67 3.35 0.34 1.7 0 0 Z " fill="#ECA693" transform="translate(176,278)"/>
<path d="M0 0 C1.98 0 3.96 0 6 0 C5.67 1.32 5.34 2.64 5 4 C3.35 3.67 1.7 3.34 0 3 C0 2.01 0 1.02 0 0 Z " fill="#979797" transform="translate(381,256)"/>
<path d="M0 0 C2.31 0.33 4.62 0.66 7 1 C7 1.99 7 2.98 7 4 C6.21625 3.814375 5.4325 3.62875 4.625 3.4375 C2.02910225 2.74037734 2.02910225 2.74037734 0 4 C0 2.68 0 1.36 0 0 Z " fill="#B4E3FC" transform="translate(176,178)"/>
<path d="M0 0 C1.32 0 2.64 0 4 0 C4 0.66 4 1.32 4 2 C3.34 2 2.68 2 2 2 C2 3.98 2 5.96 2 8 C1.34 8 0.68 8 0 8 C0 5.36 0 2.72 0 0 Z " fill="#3F3F3F" transform="translate(379,126)"/>
<path d="M0 0 C1.32 0 2.64 0 4 0 C3.67 1.65 3.34 3.3 3 5 C2.01 5 1.02 5 0 5 C0 3.35 0 1.7 0 0 Z " fill="#A0A0A0" transform="translate(175,405)"/>
<path d="M0 0 C0.66 0 1.32 0 2 0 C2 0.66 2 1.32 2 2 C3.65 2.33 5.3 2.66 7 3 C6.67 3.66 6.34 4.32 6 5 C5.38125 4.814375 4.7625 4.62875 4.125 4.4375 C1.95839822 3.76313824 1.95839822 3.76313824 0 5 C0 3.35 0 1.7 0 0 Z " fill="#A9DEFB" transform="translate(400,392)"/>
<path d="M0 0 C1.65 0 3.3 0 5 0 C5 1.32 5 2.64 5 4 C3.35 4 1.7 4 0 4 C0 2.68 0 1.36 0 0 Z " fill="#919191" transform="translate(1,388)"/>
<path d="M0 0 C1.98 0 3.96 0 6 0 C6 0.99 6 1.98 6 3 C3.69 3 1.38 3 -1 3 C-0.67 2.01 -0.34 1.02 0 0 Z " fill="#AADFFB" transform="translate(103,388)"/>
<path d="M0 0 C2.31 0 4.62 0 7 0 C7 0.99 7 1.98 7 3 C4.69 3 2.38 3 0 3 C0 2.01 0 1.02 0 0 Z " fill="#B4E1CD" transform="translate(211,369)"/>
<path d="M0 0 C-0.33 1.65 -0.66 3.3 -1 5 C-2.32 4.67 -3.64 4.34 -5 4 C-5 3.01 -5 2.02 -5 1 C-3 0 -3 0 0 0 Z " fill="#EBA18D" transform="translate(98,354)"/>
<path d="M0 0 C1.65 0 3.3 0 5 0 C5 1.66666667 5 3.33333333 5 5 C3.35 5 1.7 5 0 5 C0 3.35 0 1.7 0 0 Z " fill="#C3BAFA" transform="translate(402,348)"/>
<path d="M0 0 C1.98 0 3.96 0 6 0 C5.67 0.99 5.34 1.98 5 3 C3.35 3.33 1.7 3.66 0 4 C0 2.68 0 1.36 0 0 Z " fill="#B4E1CD" transform="translate(106,313)"/>
<path d="M0 0 C1.65 0 3.3 0 5 0 C5 1.32 5 2.64 5 4 C3.35 3.67 1.7 3.34 0 3 C0 2.01 0 1.02 0 0 Z " fill="#C0B7F9" transform="translate(314,312)"/>
<path d="M0 0 C0.99 0.33 1.98 0.66 3 1 C3 2.32 3 3.64 3 5 C1.35 4.67 -0.3 4.34 -2 4 C-2 3.01 -2 2.02 -2 1 C-1.34 0.67 -0.68 0.34 0 0 Z " fill="#EB9E8A" transform="translate(95,212)"/>
<path d="M0 0 C2.31 0.33 4.62 0.66 7 1 C7 1.99 7 2.98 7 4 C4.69 4 2.38 4 0 4 C0 2.68 0 1.36 0 0 Z " fill="#BAE5FC" transform="translate(378,178)"/>
<path d="M0 0 C0.33 0.66 0.66 1.32 1 2 C1.99 2.33 2.98 2.66 4 3 C4 3.66 4 4.32 4 5 C2.02 5 0.04 5 -2 5 C-1.125 1.125 -1.125 1.125 0 0 Z " fill="#AEE1FB" transform="translate(299,177)"/>
<path d="M0 0 C1.67542976 0.28604898 3.34385343 0.61781233 5 1 C5 1.99 5 2.98 5 4 C3.02 4 1.04 4 -1 4 C-1 1 -1 1 0 0 Z " fill="#AFE1FC" transform="translate(197,178)"/>
<path d="M0 0 C2.31 0.33 4.62 0.66 7 1 C7 1.99 7 2.98 7 4 C5.68 4 4.36 4 3 4 C3 3.34 3 2.68 3 2 C2.34 2 1.68 2 1 2 C0.67 2.66 0.34 3.32 0 4 C0 2.68 0 1.36 0 0 Z " fill="#B5E3FC" transform="translate(277,178)"/>
<path d="M0 0 C1.65 0 3.3 0 5 0 C5 1.32 5 2.64 5 4 C3.35 3.67 1.7 3.34 0 3 C0 2.01 0 1.02 0 0 Z " fill="#8E8E8E" transform="translate(91,154)"/>
<path d="M0 0 C-0.33 1.65 -0.66 3.3 -1 5 C-2.65 4.67 -4.3 4.34 -6 4 C-5.67 3.01 -5.34 2.02 -5 1 C-2 0 -2 0 0 0 Z " fill="#8F8F8F" transform="translate(418,153)"/>
<path d="M0 0 C1.65 0 3.3 0 5 0 C5 1.32 5 2.64 5 4 C3.35 3.67 1.7 3.34 0 3 C0 2.01 0 1.02 0 0 Z " fill="#929292" transform="translate(192,154)"/>
<path d="M0 0 C0 1.65 0 3.3 0 5 C-1.65 4.67 -3.3 4.34 -5 4 C-5 3.34 -5 2.68 -5 2 C-2 0 -2 0 0 0 Z " fill="#929292" transform="translate(393,421)"/>
<path d="M0 0 C0 0.99 0 1.98 0 3 C-1.98 3 -3.96 3 -6 3 C-6 2.01 -6 1.02 -6 0 C-3 -1 -3 -1 0 0 Z " fill="#717171" transform="translate(222,406)"/>
<path d="M0 0 C1.65 0 3.3 0 5 0 C5 1.32 5 2.64 5 4 C3.68 4 2.36 4 1 4 C0.67 2.68 0.34 1.36 0 0 Z " fill="#EDAD9C" transform="translate(280,222)"/>
<path d="M0 0 C0.33 0 0.66 0 1 0 C1 1.65 1 3.3 1 5 C-0.98 5 -2.96 5 -5 5 C-5 4.01 -5 3.02 -5 2 C-3.35 2 -1.7 2 0 2 C0 1.34 0 0.68 0 0 Z " fill="#B8E4FC" transform="translate(189,177)"/>
<path d="M0 0 C2.475 0.99 2.475 0.99 5 2 C5 2.99 5 3.98 5 5 C3.35 5 1.7 5 0 5 C0 3.35 0 1.7 0 0 Z " fill="#ECA592" transform="translate(75,177)"/>
<path d="M0 0 C2.31 0.33 4.62 0.66 7 1 C7 1.66 7 2.32 7 3 C4.69 3.33 2.38 3.66 0 4 C0 2.68 0 1.36 0 0 Z " fill="#727272" transform="translate(176,153)"/>
<path d="M0 0 C0.33 1.32 0.66 2.64 1 4 C-0.98 4.33 -2.96 4.66 -5 5 C-5 3.68 -5 2.36 -5 1 C-3.35 0.67 -1.7 0.34 0 0 Z " fill="#717171" transform="translate(88,153)"/>
<path d="M0 0 C2.475 0.495 2.475 0.495 5 1 C4.67 1.99 4.34 2.98 4 4 C2.68 4 1.36 4 0 4 C0 2.68 0 1.36 0 0 Z " fill="#919191" transform="translate(395,154)"/>
<path d="M0 0 C1.65 0 3.3 0 5 0 C4.67 1.32 4.34 2.64 4 4 C2.68 4.33 1.36 4.66 0 5 C0 3.35 0 1.7 0 0 Z " fill="#878787" transform="translate(1,153)"/>
<path d="M0 0 C0.99 0.33 1.98 0.66 3 1 C2.42655063 3.86724686 2.1385485 4.8614515 0 7 C-0.66 6.67 -1.32 6.34 -2 6 C-2 5.34 -2 4.68 -2 4 C-1.34 4 -0.68 4 0 4 C0 2.68 0 1.36 0 0 Z " fill="#4C4C4C" transform="translate(173,124)"/>
<path d="M0 0 C0 1.65 0 3.3 0 5 C-1.65 5 -3.3 5 -5 5 C-2.74193548 0 -2.74193548 0 0 0 Z " fill="#909090" transform="translate(206,405)"/>
<path d="M0 0 C1.98 0 3.96 0 6 0 C5.67 0.99 5.34 1.98 5 3 C3.35 3.33 1.7 3.66 0 4 C0 2.68 0 1.36 0 0 Z " fill="#B7E2CF" transform="translate(188,369)"/>
<path d="M0 0 C0.33 1.32 0.66 2.64 1 4 C-0.98 4 -2.96 4 -5 4 C-5 3.01 -5 2.02 -5 1 C-3.35 0.67 -1.7 0.34 0 0 Z " fill="#B9E5FC" transform="translate(290,365)"/>
<path d="M0 0 C0 1.65 0 3.3 0 5 C-1.65 4.67 -3.3 4.34 -5 4 C-4.67 3.01 -4.34 2.02 -4 1 C-1 0 -1 0 0 0 Z " fill="#C6BEFA" transform="translate(296,303)"/>
<path d="M0 0 C0.33 1.32 0.66 2.64 1 4 C-0.98 4 -2.96 4 -5 4 C-5 3.01 -5 2.02 -5 1 C-3.35 0.67 -1.7 0.34 0 0 Z " fill="#BAE5FC" transform="translate(290,279)"/>
<path d="M0 0 C2.475 0.495 2.475 0.495 5 1 C5 1.99 5 2.98 5 4 C3.35 4 1.7 4 0 4 C0 2.68 0 1.36 0 0 Z " fill="#AADFFB" transform="translate(77,279)"/>
<path d="M0 0 C0.33 1.32 0.66 2.64 1 4 C-0.98 4 -2.96 4 -5 4 C-5 3.01 -5 2.02 -5 1 C-3.35 0.67 -1.7 0.34 0 0 Z " fill="#B9E4FC" transform="translate(290,178)"/>
<path d="M0 0 C1.65 0 3.3 0 5 0 C5 1.32 5 2.64 5 4 C3.68 4 2.36 4 1 4 C0.67 2.68 0.34 1.36 0 0 Z " fill="#898989" transform="translate(293,154)"/>
<path d="M0 0 C0.33 0.66 0.66 1.32 1 2 C1.66 2 2.32 2 3 2 C3.33 1.34 3.66 0.68 4 0 C4.99 0.33 5.98 0.66 7 1 C7 1.66 7 2.32 7 3 C3.25 4.125 3.25 4.125 1 3 C0.67 3.66 0.34 4.32 0 5 C0 3.35 0 1.7 0 0 Z " fill="#6C6C6C" transform="translate(277,153)"/>
</svg>
