<?xml version="1.0" encoding="UTF-8"?>
<svg version="1.1" xmlns="http://www.w3.org/2000/svg" width="200" height="200">
<path d="M0 0 C66 0 132 0 200 0 C200 66 200 132 200 200 C134 200 68 200 0 200 C0 134 0 68 0 0 Z " fill="#000000" transform="translate(0,0)"/>
<path d="M0 0 C1.8125 1.25 1.8125 1.25 3 3 C3.81476115 8.05522262 1.26140238 11.50981296 -1.3125 15.625 C-2.23362778 17.12646654 -3.15282382 18.62911949 -4.0703125 20.1328125 C-4.55145508 20.91946289 -5.03259766 21.70611328 -5.52832031 22.51660156 C-7.04655527 25.07856008 -8.46488593 27.67765165 -9.8671875 30.3046875 C-10.33858154 31.1714209 -10.80997559 32.0381543 -11.2956543 32.93115234 C-12.20898168 34.61682692 -13.10439137 36.31235926 -13.97973633 38.01806641 C-17.12921957 43.73164046 -17.12921957 43.73164046 -21.67578125 45.1328125 C-25 45 -25 45 -27.5 43.375 C-29 41 -29 41 -28.79174805 38.73144531 C-27.8540132 35.49636129 -26.4746784 32.86375402 -24.83203125 29.921875 C-24.51473557 29.35100159 -24.19743988 28.78012817 -23.87052917 28.19195557 C-23.19873878 26.98667702 -22.52364583 25.78323399 -21.84545898 24.58154297 C-20.82579096 22.77356625 -19.81735318 20.95969515 -18.81054688 19.14453125 C-6.99257901 -2.04660849 -6.99257901 -2.04660849 0 0 Z " fill="#BFEF4C" transform="translate(166,61)"/>
<path d="M0 0 C2.625 0.4375 2.625 0.4375 5 2.625 C6.625 5.4375 6.625 5.4375 6.37915039 7.82421875 C5.59949522 10.52587914 4.59138905 12.6324467 3.18359375 15.0625 C2.68585449 15.92834717 2.18811523 16.79419434 1.67529297 17.6862793 C1.14307129 18.59418213 0.61084961 19.50208496 0.0625 20.4375 C-0.74743408 21.83512573 -0.74743408 21.83512573 -1.57373047 23.26098633 C-13.22247682 43.28497682 -13.22247682 43.28497682 -16.375 46.4375 C-19.47271665 46.76704432 -21.54831023 46.89084601 -24.3125 45.375 C-25.62830258 42.9755953 -25.48531616 41.32536777 -25.05053711 38.66479492 C-23.51076471 33.58805347 -20.42394936 29.12995996 -17.6875 24.625 C-17.07455078 23.59568359 -16.46160156 22.56636719 -15.83007812 21.50585938 C-14.61236973 19.46429313 -13.38866532 17.42629009 -12.15869141 15.39208984 C-10.9799528 13.4395721 -9.81016781 11.48161785 -8.64990234 9.51806641 C-8.11961426 8.6213623 -7.58932617 7.7246582 -7.04296875 6.80078125 C-6.57528076 6.00583252 -6.10759277 5.21088379 -5.62573242 4.3918457 C-3.96530857 1.79733216 -3.09363011 0.56987923 0 0 Z " fill="#BFEF4C" transform="translate(56.375,85.5625)"/>
<path d="M0 0 C2.9375 0.8125 2.9375 0.8125 4.9375 2.8125 C6.32128461 10.22276686 2.07502575 15.51184196 -1.6875 21.625 C-2.30496094 22.65431641 -2.92242187 23.68363281 -3.55859375 24.74414062 C-4.78585091 26.78655491 -6.02044949 28.82457753 -7.26269531 30.85791016 C-9.48319357 34.50311768 -11.65158461 38.17822919 -13.81396484 41.8581543 C-15.0625 43.8125 -15.0625 43.8125 -17.0625 45.8125 C-20 46.1875 -20 46.1875 -23.0625 45.8125 C-25 44.1875 -25 44.1875 -26.0625 41.8125 C-25.65567078 37.45032379 -24.51033187 34.32152227 -22.33203125 30.546875 C-21.77580078 29.57363281 -21.21957031 28.60039063 -20.64648438 27.59765625 C-19.76959961 26.09525391 -19.76959961 26.09525391 -18.875 24.5625 C-18.30974609 23.57636719 -17.74449219 22.59023437 -17.16210938 21.57421875 C-15.47728579 18.64459424 -13.77298204 15.72720499 -12.0625 12.8125 C-11.51513184 11.86955078 -10.96776367 10.92660156 -10.40380859 9.95507812 C-9.88254395 9.06755859 -9.3612793 8.18003906 -8.82421875 7.265625 C-8.36362061 6.47833008 -7.90302246 5.69103516 -7.4284668 4.87988281 C-4.04075891 -0.2473934 -4.04075891 -0.2473934 0 0 Z " fill="#C0F04C" transform="translate(99.0625,60.1875)"/>
<path d="M0 0 C2 3 2 3 1.82519531 5.79931641 C0.91509157 9.32933418 -0.4134352 12.03679828 -2.203125 15.2109375 C-2.52279236 15.78276764 -2.84245972 16.35459778 -3.17181396 16.9437561 C-4.1895803 18.7589862 -5.21973582 20.56684044 -6.25 22.375 C-6.926559 23.58029293 -7.602347 24.78601898 -8.27734375 25.9921875 C-10.15859244 29.34345079 -12.07475685 32.67379163 -14 36 C-14.48581543 36.85537354 -14.97163086 37.71074707 -15.47216797 38.59204102 C-18.57108468 43.85949326 -18.57108468 43.85949326 -22.625 45.1875 C-26 45 -26 45 -27.9375 43.9375 C-29.4628963 41.15589498 -29.2360075 39.1474797 -29 36 C-27.82592773 33.19848633 -27.82592773 33.19848633 -26.18359375 30.33203125 C-25.58353516 29.27306641 -24.98347656 28.21410156 -24.36523438 27.12304688 C-23.72908203 26.03056641 -23.09292969 24.93808594 -22.4375 23.8125 C-21.82841797 22.73935547 -21.21933594 21.66621094 -20.59179688 20.56054688 C-7.73244591 -1.93311148 -7.73244591 -1.93311148 0 0 Z " fill="#C0F04C" transform="translate(125,87)"/>
</svg>
