<svg xmlns="http://www.w3.org/2000/svg" width="256" height="256" viewBox="0 0 256 256" version="1.1">
    <path
        d="M 54 67.880 L 54 104.760 66.539 116.880 L 79.077 129 91.039 129 L 103 129 103 153 L 103 177 90.839 177 L 78.678 177 66.339 189.199 L 54 201.398 54 213.699 L 54 226 78.482 226 L 102.964 226 103.232 201.750 L 103.500 177.500 152.750 177.241 L 202 176.981 202 103.991 L 202 31 128 31 L 54 31 54 67.880 M 103 104 L 103 128 128 128 L 153 128 153 104 L 153 80 128 80 L 103 80 103 104"
        stroke="none" fill="#040404" fill-rule="evenodd" />
    <path
        d="M 8.218 1.656 C 6.413 2.550, 3.938 4.680, 2.718 6.390 L 0.500 9.500 0.238 126.823 C -0.053 256.798, -0.460 248.395, 6.373 253.270 L 9.500 255.500 128 255.500 L 246.500 255.500 249.509 253.353 C 251.165 252.173, 253.527 249.318, 254.759 247.009 L 257 242.811 257 126.346 C 257 62.291, 256.645 10.101, 256.212 10.369 C 255.779 10.637, 254.844 9.544, 254.134 7.940 C 253.424 6.337, 251.416 4.007, 249.672 2.762 L 246.500 0.500 129 0.266 C 22.279 0.054, 11.199 0.181, 8.218 1.656 M 0.484 128 C 0.484 192.625, 0.603 219.063, 0.750 186.750 C 0.896 154.438, 0.896 101.563, 0.750 69.250 C 0.603 36.938, 0.484 63.375, 0.484 128 M 54 67.880 L 54 104.760 66.539 116.880 L 79.077 129 91.039 129 L 103 129 103 153 L 103 177 90.839 177 L 78.678 177 66.339 189.199 L 54 201.398 54 213.699 L 54 226 78.482 226 L 102.964 226 103.232 201.750 L 103.500 177.500 152.750 177.241 L 202 176.981 202 103.991 L 202 31 128 31 L 54 31 54 67.880 M 103 104 L 103 128 128 128 L 153 128 153 104 L 153 80 128 80 L 103 80 103 104"
        stroke="none" fill="#f4f4f4" fill-rule="evenodd" />
</svg>