<svg xmlns="http://www.w3.org/2000/svg" width="1200" height="674" viewBox="0 0 1200 674" version="1.1"><path d="M 586.980 255.750 L 577.500 265.500 587.250 256.020 C 596.306 247.215, 597.455 246, 596.730 246 C 596.582 246, 592.194 250.387, 586.980 255.750 M 422.349 276 C 422.349 280.675, 422.522 282.587, 422.732 280.250 C 422.943 277.913, 422.943 274.087, 422.732 271.750 C 422.522 269.413, 422.349 271.325, 422.349 276 M 431.287 429.740 C 434.469 429.939, 439.419 429.937, 442.287 429.736 C 445.154 429.535, 442.550 429.372, 436.500 429.374 C 430.450 429.376, 428.104 429.541, 431.287 429.740 M 687.971 441.750 L 681.500 448.500 688.250 442.029 C 691.962 438.470, 695 435.432, 695 435.279 C 695 434.543, 693.982 435.480, 687.971 441.750 M 799.500 456 C 803.874 460.400, 807.678 464, 807.953 464 C 808.228 464, 804.874 460.400, 800.500 456 C 796.126 451.600, 792.322 448, 792.047 448 C 791.772 448, 795.126 451.600, 799.500 456 M 678.978 465.750 L 670.500 474.500 679.250 466.022 C 684.063 461.359, 688 457.422, 688 457.272 C 688 456.544, 686.852 457.623, 678.978 465.750 M 528 493.275 C 528 493.426, 531.487 496.914, 535.750 501.025 L 543.500 508.500 536.025 500.750 C 529.082 493.552, 528 492.544, 528 493.275 M 521.500 501 C 525.320 504.850, 528.671 508, 528.946 508 C 529.221 508, 526.320 504.850, 522.500 501 C 518.680 497.150, 515.329 494, 515.054 494 C 514.779 494, 517.680 497.150, 521.500 501 M 481.789 514.741 C 485.248 514.937, 490.648 514.936, 493.789 514.738 C 496.930 514.540, 494.100 514.380, 487.500 514.382 C 480.900 514.384, 478.330 514.546, 481.789 514.741" stroke="none" fill="#ffd480" fill-rule="evenodd"/><path d="" stroke="none" fill="#000000" fill-rule="evenodd"/><path d="M 542.674 99.663 C 538.394 107.941, 534.010 131.241, 534.004 145.750 C 534.002 150.838, 534.152 155, 534.337 155 C 534.523 155, 539.135 154.328, 544.587 153.506 C 550.039 152.684, 556.611 152.009, 559.191 152.006 C 561.771 152.003, 564.087 151.662, 564.337 151.250 C 564.587 150.838, 561.921 144.650, 558.414 137.500 C 554.013 128.529, 551.065 120.781, 548.901 112.500 C 544.446 95.447, 544.644 95.855, 542.674 99.663 M 611.660 101.250 C 607.056 107.379, 600.711 118.504, 597.374 126.297 C 594.534 132.930, 589 149.369, 589 151.172 C 589 151.485, 592.230 152.060, 596.179 152.449 C 600.127 152.838, 606.959 153.790, 611.360 154.563 C 615.762 155.337, 619.551 155.782, 619.781 155.553 C 620.010 155.323, 619.262 151.147, 618.118 146.274 C 615.469 134.989, 613.709 114.895, 614.535 105.371 C 614.887 101.317, 614.934 98, 614.638 98 C 614.343 98, 613.003 99.463, 611.660 101.250 M 475.667 114.667 C 475.300 115.033, 475.003 121.221, 475.006 128.417 C 475.012 142.217, 476.759 156.383, 479.727 166.696 L 481.510 172.891 490.005 169.136 C 494.677 167.070, 501.311 164.340, 504.747 163.069 L 510.993 160.759 505.881 155.629 C 496.709 146.428, 484.274 128.777, 479.217 117.784 C 477.477 114.001, 476.867 113.466, 475.667 114.667 M 668.458 129.306 C 661.142 136.739, 654.856 144.357, 650.111 151.542 L 642.893 162.471 645.696 163.700 C 666.397 172.778, 671.418 174.915, 671.607 174.724 C 671.729 174.601, 672.118 170.225, 672.471 165 C 673.490 149.935, 677.381 130.595, 681.609 119.577 C 683.130 115.612, 678.744 118.857, 668.458 129.306 M 731 159.149 C 725.775 161.950, 718.214 166.509, 714.198 169.281 C 707.024 174.233, 692.972 186.555, 693.029 187.844 C 693.045 188.205, 695.633 190.371, 698.779 192.658 C 701.926 194.945, 707.114 199.108, 710.308 201.908 C 713.503 204.709, 716.447 207, 716.851 207 C 717.255 207, 718.120 205.001, 718.773 202.559 C 721.306 193.087, 728.543 176.553, 734.643 166.298 C 738.152 160.399, 740.906 155.230, 740.762 154.814 C 740.618 154.397, 736.225 156.348, 731 159.149 M 455.782 194.063 C 445.979 200.752, 443.243 204.186, 439.035 215.077 C 429.600 239.501, 428.693 275.811, 436.560 314.104 L 437.095 316.708 445.797 315.349 C 460.830 313.003, 481.494 306.497, 502.338 297.548 C 504.567 296.591, 505.958 295.397, 505.656 294.700 C 494.877 269.825, 477.003 223.091, 470.489 202.750 C 467.891 194.637, 465.481 188.025, 465.133 188.057 C 464.785 188.088, 460.577 190.790, 455.782 194.063 M 622.491 209.125 C 607.699 242.729, 565.823 281.886, 521.500 303.559 C 494.898 316.567, 472.951 324.095, 451.319 327.634 C 445.369 328.607, 440.396 329.454, 440.270 329.515 C 440.143 329.577, 441.819 335.525, 443.994 342.733 C 450.185 363.248, 462.463 392.609, 473.181 412.526 C 480.400 425.942, 478.354 424.714, 489.143 422.104 C 507.777 417.595, 552.735 401.524, 556.265 398.110 C 556.686 397.703, 552.949 389.749, 547.961 380.435 C 539.189 364.058, 518 321.823, 518 320.717 C 518 320.418, 522.750 317.659, 528.556 314.586 C 574.637 290.197, 607.832 254.654, 622.406 214.099 C 625.392 205.790, 625.450 202.403, 622.491 209.125 M 778.707 207.044 C 773.872 208.086, 765.772 210.351, 760.707 212.078 C 751.585 215.187, 734 223.600, 734 224.854 C 734 225.213, 736.463 228.822, 739.473 232.874 C 742.484 236.927, 746.356 242.438, 748.078 245.121 C 749.800 247.805, 751.499 249.996, 751.854 249.991 C 752.209 249.987, 754.482 246.770, 756.905 242.843 C 762.763 233.349, 774.212 219.708, 782.381 212.492 C 788.434 207.145, 790.227 204.878, 788.250 205.074 C 787.837 205.115, 783.543 206.002, 778.707 207.044 M 423.358 221.250 C 403.428 241.662, 386.261 268.981, 377.391 294.399 L 374.635 302.297 377.481 304.566 C 385.814 311.211, 400.665 315.947, 415.606 316.724 L 425.712 317.249 424.368 308.375 C 419.406 275.586, 423.043 237.926, 433.320 215.683 C 435.272 211.458, 436.741 208, 436.582 208 C 436.424 208, 430.473 213.963, 423.358 221.250 M 785.121 267.080 C 778.377 267.954, 763.864 270.803, 763.305 271.362 C 763.123 271.544, 764.040 274.124, 765.342 277.096 C 766.644 280.068, 768.956 286.325, 770.479 291 C 772.002 295.675, 773.530 299.802, 773.874 300.172 C 774.218 300.541, 777.425 298.157, 781 294.873 C 789.049 287.479, 805.115 276.575, 814.750 271.967 C 818.737 270.060, 822 268.224, 822 267.886 C 822 266.014, 797.478 265.479, 785.121 267.080 M 699.026 283.662 C 688.024 310.253, 659.964 344.306, 628.223 369.586 C 592.209 398.269, 544.929 421.919, 501.250 433.098 C 493.962 434.963, 487.995 436.942, 487.990 437.495 C 487.972 439.222, 504.499 463.005, 513.708 474.504 C 524.904 488.486, 541.736 506, 543.976 506 C 549.643 506, 585.816 493.796, 601.680 486.531 L 609.860 482.785 602.075 471.143 C 589.749 452.711, 571.983 423.770, 572.012 422.169 C 572.018 421.801, 575.926 419.475, 580.696 417 C 602.231 405.826, 626.654 387.582, 645.140 368.860 C 659.599 354.216, 666.976 345.124, 677.884 328.500 C 687.835 313.334, 694.485 300.664, 698.908 288.441 C 702.541 278.400, 702.626 274.960, 699.026 283.662 M 367.588 324.249 C 363.274 343.641, 361.852 369.332, 364.037 388.405 C 364.920 396.117, 365.514 397.932, 368.474 401.964 C 377.198 413.849, 395.870 424.059, 414.326 427.036 C 421.866 428.253, 463.269 428.064, 464.526 426.807 C 464.853 426.480, 462.184 420.352, 458.595 413.190 C 444.614 385.289, 437.703 367.533, 431.574 343.767 L 428.290 331.035 415.895 330.577 C 400.798 330.019, 390.666 327.597, 379 321.756 C 374.325 319.415, 370.212 317.367, 369.861 317.204 C 369.509 317.041, 368.486 320.211, 367.588 324.249 M 779.558 327.597 C 779.946 329.744, 780.411 332.327, 780.591 333.338 C 780.772 334.349, 781.216 339.524, 781.579 344.838 C 781.941 350.152, 782.366 354.644, 782.522 354.820 C 782.678 354.995, 787.012 353.097, 792.153 350.601 C 803.016 345.328, 819.384 339.797, 829.760 337.894 C 833.754 337.161, 836.868 336.103, 836.681 335.542 C 836.189 334.066, 817.071 328.245, 807.057 326.523 C 802.351 325.713, 794.079 324.746, 788.676 324.373 L 778.852 323.694 779.558 327.597 M 780.518 384.214 C 780.144 387.121, 778.955 393.943, 777.875 399.373 C 776.796 404.803, 776.064 409.398, 776.251 409.584 C 776.437 409.770, 781.519 408.973, 787.544 407.812 C 796.030 406.178, 802.503 405.689, 816.250 405.644 C 826.013 405.613, 833.994 405.343, 833.987 405.044 C 833.963 404.024, 818.894 394.685, 810.375 390.410 C 805.702 388.064, 798.193 384.820, 793.689 383.201 C 779.998 378.278, 781.294 378.179, 780.518 384.214 M 718.174 404.301 C 708.907 421.186, 689.142 443.456, 669 459.709 C 654.358 471.524, 630.888 487.043, 619.274 492.591 C 606.028 498.919, 577.782 510.103, 565.241 513.985 C 559.598 515.732, 555.224 517.553, 555.520 518.032 C 556.471 519.571, 574.278 532.603, 581.216 536.838 C 596.684 546.279, 611.767 552.186, 625.459 554.166 C 632.927 555.246, 634.545 555.187, 639.211 553.665 C 645.681 551.554, 655.242 546.791, 655.661 545.470 C 655.830 544.936, 649.226 535.822, 640.984 525.216 C 632.743 514.609, 626 505.558, 626 505.101 C 626 504.644, 629.709 502.115, 634.241 499.481 C 668.164 479.771, 695.693 451.746, 713.335 418.964 C 717.585 411.066, 723.507 397, 722.582 397 C 722.361 397, 720.378 400.285, 718.174 404.301 M 370 421.318 C 370 421.621, 371.845 427.186, 374.099 433.684 C 382.695 458.463, 396.747 482.801, 407.252 491.105 C 418.726 500.174, 441.970 509.006, 462.500 512.097 C 475.827 514.103, 501.991 513.854, 516.700 511.582 L 528.901 509.698 518.336 498.599 C 502.892 482.374, 488.941 464.406, 476.079 444.173 C 473.329 439.847, 472.300 438.954, 470.597 439.418 C 469.443 439.732, 462.052 440.522, 454.171 441.175 C 421.491 443.879, 387.813 436.860, 374.121 424.490 C 371.854 422.443, 370 421.015, 370 421.318 M 766.506 437.702 C 765.514 440.341, 762.516 446.887, 759.842 452.250 L 754.982 462 761.892 462 C 771.603 462, 789.659 465.279, 801.811 469.249 C 807.480 471.101, 812.290 472.340, 812.499 472.002 C 813.237 470.808, 799.152 455.412, 791.379 448.915 C 783.775 442.560, 772.493 434.510, 769.674 433.428 C 768.757 433.076, 767.716 434.480, 766.506 437.702 M 737.379 487.313 C 734.729 490.716, 730.114 496.091, 727.122 499.257 C 724.130 502.424, 721.866 505.160, 722.091 505.337 C 722.316 505.514, 725.650 506.681, 729.500 507.931 C 739.334 511.123, 754.999 518.858, 764.930 525.425 C 769.566 528.491, 773.504 531, 773.680 531 C 775.759 531, 767.981 514.856, 760.554 503.756 C 757.516 499.215, 752.143 492.266, 748.613 488.313 L 742.195 481.127 737.379 487.313 M 434 517.494 C 434 517.701, 438.405 521.188, 443.790 525.244 C 472.598 546.945, 498.052 558.080, 534 564.709 C 541.254 566.046, 548.939 566.465, 566.500 566.480 C 589.833 566.500, 593.893 566.094, 613 561.832 C 623.566 559.475, 623.480 559.292, 610.500 556.495 C 591.602 552.423, 563.454 537.996, 544.665 522.753 L 541.830 520.453 530.665 522.672 C 498.006 529.164, 466.147 528.065, 441.250 519.588 C 437.262 518.230, 434 517.288, 434 517.494 M 696.505 526.533 C 692.658 529.478, 686.925 533.376, 683.766 535.194 C 680.607 537.012, 678.045 538.725, 678.073 539 C 678.101 539.275, 681.359 541.635, 685.312 544.245 C 696.282 551.488, 706.352 560.260, 713.778 569.044 C 717.475 573.417, 720.994 576.996, 721.599 576.997 C 724.279 577.004, 717.701 551.168, 711.039 535.522 C 706.285 524.359, 704.643 520.992, 704 521.097 C 703.725 521.141, 700.352 523.587, 696.505 526.533" stroke="none" fill="#fdbe10" fill-rule="evenodd"/><path d="" stroke="none" fill="#000000" fill-rule="evenodd"/><path d="" stroke="none" fill="#000000" fill-rule="evenodd"/><path d="" stroke="none" fill="#000000" fill-rule="evenodd"/><path d="" stroke="none" fill="#000000" fill-rule="evenodd"/><path d="" stroke="none" fill="#000000" fill-rule="evenodd"/><path d="M 776.971 217.750 L 770.500 224.500 777.250 218.029 C 783.520 212.018, 784.457 211, 783.721 211 C 783.568 211, 780.530 214.037, 776.971 217.750 M 424.971 218.750 L 418.500 225.500 425.250 219.029 C 431.520 213.018, 432.457 212, 431.721 212 C 431.568 212, 428.530 215.037, 424.971 218.750 M 431.287 428.740 C 434.469 428.939, 439.419 428.937, 442.287 428.736 C 445.154 428.535, 442.550 428.372, 436.500 428.374 C 430.450 428.376, 428.104 428.541, 431.287 428.740 M 520.500 501 C 524.874 505.400, 528.678 509, 528.953 509 C 529.228 509, 525.874 505.400, 521.500 501 C 517.126 496.600, 513.322 493, 513.047 493 C 512.772 493, 516.126 496.600, 520.500 501" stroke="none" fill="#ffc528" fill-rule="evenodd"/><path d="M 474.355 128.500 C 474.352 133.450, 474.521 135.601, 474.731 133.280 C 474.940 130.959, 474.943 126.909, 474.736 124.280 C 474.530 121.651, 474.358 123.550, 474.355 128.500 M 668 128.500 C 663.903 132.625, 660.775 136, 661.050 136 C 661.325 136, 664.903 132.625, 669 128.500 C 673.097 124.375, 676.225 121, 675.950 121 C 675.675 121, 672.097 124.375, 668 128.500 M 430.355 263.500 C 430.352 268.450, 430.521 270.601, 430.731 268.280 C 430.940 265.959, 430.943 261.909, 430.736 259.280 C 430.530 256.651, 430.358 258.550, 430.355 263.500 M 799.250 265.735 C 801.862 265.941, 806.138 265.941, 808.750 265.735 C 811.362 265.529, 809.225 265.360, 804 265.360 C 798.775 265.360, 796.638 265.529, 799.250 265.735 M 650.473 349.250 L 643.500 356.500 650.750 349.527 C 654.737 345.692, 658 342.429, 658 342.277 C 658 341.543, 656.950 342.516, 650.473 349.250 M 362.365 367.500 C 362.368 373, 362.536 375.122, 362.738 372.216 C 362.941 369.311, 362.939 364.811, 362.734 362.216 C 362.528 359.622, 362.363 362, 362.365 367.500 M 435.750 441.737 C 438.637 441.939, 443.363 441.939, 446.250 441.737 C 449.137 441.535, 446.775 441.370, 441 441.370 C 435.225 441.370, 432.863 441.535, 435.750 441.737 M 483.287 526.740 C 486.469 526.939, 491.419 526.937, 494.287 526.736 C 497.154 526.535, 494.550 526.372, 488.500 526.374 C 482.450 526.376, 480.104 526.541, 483.287 526.740 M 559.296 567.744 C 563.583 567.932, 570.333 567.931, 574.296 567.742 C 578.258 567.552, 574.750 567.399, 566.500 567.400 C 558.250 567.401, 555.008 567.556, 559.296 567.744" stroke="none" fill="#fccc44" fill-rule="evenodd"/><path d="" stroke="none" fill="#fcbc13" fill-rule="evenodd"/></svg>